<svg width="49" height="50" viewBox="0 0 49 50" fill="none" xmlns="http://www.w3.org/2000/svg">
<g clip-path="url(#clip0_41_771)">
<path d="M24.5687 11.0969C24.5687 11.0969 24.5687 11.315 24.5687 11.533C24.5687 11.751 24.353 11.751 24.1373 11.9691C23.9216 12.1872 23.7059 12.4053 23.2745 12.6233C23.0588 12.8414 22.6275 13.2776 22.4118 13.7136L22.1961 13.9317L21.9804 14.1498C21.7647 14.3678 21.7647 14.5859 21.549 15.022C21.3333 15.2401 21.1176 15.4581 20.902 15.6762C20.6863 15.8942 20.6863 16.1123 20.4706 16.5485C20.4706 16.7665 20.2549 16.7665 20.2549 16.9846L19.8235 17.4207C19.6078 17.6387 19.3922 17.8568 19.1766 18.2929C18.9609 18.511 18.7452 18.7291 18.3138 18.9472C18.0981 19.1651 17.6667 19.3832 17.2354 19.6013C17.0197 19.8194 16.5883 19.8194 16.1569 19.8194C15.9412 19.8194 15.7255 19.8194 15.7255 19.8194C15.7255 19.8194 15.7255 19.8194 15.5098 19.8194L15.7255 20.0374L16.1569 20.2555L16.3726 20.4736C16.5883 20.4736 16.5883 20.6917 16.804 20.6917C17.0197 20.9097 17.2354 20.9097 17.451 20.9097C17.6667 20.9097 17.8824 20.9097 18.0981 20.9097C18.3138 20.9097 18.5295 20.9097 18.7452 20.9097C18.9609 20.9097 19.1766 20.9097 19.3922 20.6917C19.8235 20.4736 20.0392 20.2555 20.2549 20.0374C20.902 19.6013 21.1176 19.3832 21.3333 19.1651C21.549 18.9472 21.7647 18.7291 21.9804 18.7291C22.1961 18.511 22.4118 18.2929 22.6275 18.2929C22.8432 18.2929 23.0588 18.2929 23.0588 18.0749C23.0588 18.0749 23.2745 18.0749 23.2745 17.8568H23.4902C23.4902 17.8568 23.4902 17.8568 23.7059 17.8568C24.1373 17.8568 24.353 17.8568 24.5687 17.8568C24.7844 17.8568 24.7844 17.8568 25 17.8568C25 17.8568 25 18.0749 24.7844 18.0749C24.5687 18.2929 24.353 18.2929 24.1373 18.511L23.9216 18.7291C23.7059 18.9472 23.7059 18.9472 23.4902 19.1651C23.2745 19.3832 23.0588 19.3832 23.0588 19.6013C22.8432 19.8194 22.6275 20.0374 22.4118 20.2555C22.1961 20.4736 21.7647 20.6917 21.1176 21.1277C20.902 21.3458 20.4706 21.5639 20.0392 21.7819C19.8235 21.7819 19.6078 22 19.1766 22C18.7452 22 18.7452 22 18.3138 22C18.0981 22 17.6667 22 17.451 22C17.0197 22 16.804 21.7819 16.5883 21.5639C16.3726 21.3458 16.3726 21.3458 16.1569 21.3458C15.9412 21.3458 15.9412 21.1277 15.7255 21.1277C15.5098 21.1277 15.5098 20.9097 15.2942 20.6917C15.0785 20.4736 15.0785 20.2555 14.8628 20.2555C14.6471 19.8194 14.4314 19.6013 14.2157 19.1651L14 18.9472V18.7291L14.8628 18.9472C15.0785 18.9472 15.5098 18.9472 15.7255 18.9472C15.9412 18.9472 16.1569 18.9472 16.3726 18.9472C16.5883 18.9472 17.0197 18.9472 17.2354 18.7291C17.451 18.7291 17.8824 18.511 18.0981 18.2929C18.3138 18.0749 18.5295 17.8568 18.9609 17.6387C18.7452 17.6387 19.1766 17.4207 19.3922 16.9846L19.6079 16.5485C19.6079 16.3304 19.8235 16.3304 19.8235 16.1123C20.0392 15.8942 20.0392 15.4581 20.2549 15.2401C20.4706 15.022 20.6863 14.804 20.6863 14.5859C20.902 14.3678 20.902 14.1498 21.1176 13.7136C21.1176 13.4955 21.3333 13.4955 21.3333 13.2776L21.549 13.0595C21.7647 12.6233 22.1961 12.1872 22.6275 11.9691C23.0588 11.751 23.2745 11.533 23.4902 11.315C23.7059 11.0969 23.9216 11.0969 24.1373 11.0969C24.353 10.8788 24.353 11.0969 24.5687 11.0969Z" fill="#095F72"/>
<path d="M31.7342 10.1609C31.7342 10.1609 31.9517 10.377 31.9517 10.5931C31.9517 10.8092 31.9517 11.2414 31.7342 11.6736C31.5166 12.1057 31.2991 12.7541 30.864 13.4024C30.429 13.8345 29.7765 14.4828 29.3414 14.915L28.9063 15.3472C28.6888 15.5633 28.6888 15.5633 28.4714 15.7793C28.2538 16.2115 27.8188 16.4276 27.6012 16.8598C27.1661 17.2921 26.9486 17.5082 26.5136 17.9403C26.2961 18.3725 25.861 18.8047 25.6435 19.2369C25.426 19.4529 25.426 19.669 25.2084 19.8851L24.7734 20.5334C24.3384 20.9656 23.9033 21.3978 23.6858 21.83C23.2507 22.2622 22.8157 22.4783 23.0332 22.6944C23.2507 22.9105 23.6858 23.1266 24.3384 22.9105C24.7734 22.9105 25.2084 22.6944 25.6435 22.4783C25.861 22.2622 26.0786 22.2622 26.2961 22.0461C26.5136 21.83 26.7311 21.83 26.7311 21.6139L27.1661 20.9656C27.3837 20.7495 27.6012 20.5334 27.6012 20.3173C28.0363 19.8851 28.2538 19.669 28.6888 19.2369C28.9063 19.0208 29.3414 18.8047 29.7765 18.3725C29.994 18.3725 30.2115 18.1564 30.429 18.1564C30.6465 17.9403 30.864 17.9403 31.0816 17.9403C31.7342 17.7242 32.1693 17.5082 32.3867 17.5082C32.8218 17.5082 33.2568 17.2921 33.6919 17.076C34.127 17.076 34.5619 17.076 34.997 16.8598C35.2145 16.8598 35.6496 16.6437 35.8671 16.6437C36.5196 16.2115 36.9547 15.9954 37.3898 15.5633C38.0423 14.6989 38.4774 14.0506 38.4774 13.6185C38.6949 13.4024 38.6949 12.9702 38.6949 12.538C38.6949 12.1057 38.6949 11.8896 38.6949 11.4575C38.6949 11.0253 38.6949 10.8092 38.6949 10.5931C38.6949 10.377 38.6949 10.377 38.6949 10.1609V9.94479V9.72879C38.6949 9.08047 38.6949 8.86438 38.6949 8.43219C38.6949 8.21609 38.6949 8 38.6949 8C38.6949 8 38.9124 8 39.13 8.43219C39.13 8.64828 39.3475 9.08047 39.565 9.51265V9.72879V9.94479C39.565 10.1609 39.565 10.1609 39.7826 10.377C39.7826 10.8092 40 11.0253 40 11.4575C40 11.8896 40 12.3218 40 12.7541C40 13.1863 40 13.6185 39.7826 14.2667C39.565 14.6989 39.3475 15.5633 38.2598 16.4276C37.6073 16.8598 37.1722 17.2921 36.3021 17.5082C35.8671 17.7242 35.4321 17.7242 35.2145 17.9403C34.7795 17.9403 34.5619 18.1564 34.127 18.1564C33.6919 18.1564 33.2568 18.3725 32.8218 18.3725C32.3867 18.3725 31.9517 18.5886 31.5166 18.5886C31.2991 18.5886 31.0816 18.8047 30.864 18.8047L30.2115 19.0208C29.7765 19.2369 29.3414 19.4529 29.1239 19.8851C28.6888 20.1012 28.4713 20.5334 28.0363 20.7495L27.6012 21.1817L26.9486 21.6139C26.7311 21.83 26.5136 22.0461 26.2961 22.0461C26.0786 22.2622 25.861 22.2622 25.6435 22.4783C25.2084 22.6944 24.5559 22.9105 24.1209 22.9105C23.4683 22.9105 22.8157 22.9105 22.1632 22.2622C21.9456 22.0461 21.9456 21.3978 22.1632 21.1817H22.8157C23.2507 20.7495 23.6858 20.3173 23.9033 20.1012L24.3384 19.4529C24.5559 19.2369 24.5559 19.0208 24.7734 18.8047C24.9909 18.3725 25.2084 17.9403 25.6435 17.5082C26.0786 17.076 26.2961 16.6437 26.7311 16.4276C26.9486 16.2115 27.3837 15.7793 27.6012 15.3472C27.8188 15.1311 27.8188 14.915 28.0363 14.915L28.4714 14.4828C29.3414 13.8345 29.7765 13.4024 30.2115 12.7541C30.429 12.3218 30.6465 11.8896 30.864 11.4575C31.0816 11.0253 31.2991 10.8092 31.2991 10.377C31.5166 10.1609 31.5166 10.1609 31.7342 10.1609Z" fill="#095F72"/>
<path d="M42.1656 10.6971C42.3949 10.9122 43.3121 12.2031 43.0828 12.4182V12.6334V12.8485C43.0828 13.0637 42.8534 13.2788 42.8534 13.2788C42.8534 13.494 42.8534 13.494 42.6242 13.7092C42.6242 13.7092 42.3949 13.9242 42.1656 13.9242H41.9363H41.707C41.4777 13.9242 41.2484 13.7092 41.0191 13.7092C41.2484 13.7092 41.2484 13.7092 40.7897 13.494C40.5605 13.494 40.5605 13.2788 40.3312 13.2788C40.1019 13.2788 40.1019 13.2788 40.1019 13.2788C40.1019 13.2788 39.8726 13.494 40.1019 13.494C40.1019 13.7092 40.3312 13.7092 40.3312 13.9242C40.3312 14.3545 40.5605 14.5697 41.0191 14.7848C41.2484 14.7848 41.4777 15 41.9363 15C42.1656 15 42.1656 15 42.3949 15C42.6242 15 42.6242 15 42.8534 15C43.0828 15 43.3121 14.7848 43.5414 14.5697C43.7707 14.3545 43.7707 14.1394 43.7707 13.9242C43.7707 13.494 43.7707 13.494 44 13.2788C44 13.0637 44 13.0637 44 12.8485C44 12.6334 44 12.6334 44 12.4182C44 12.2031 43.0828 10.4819 42.8534 10.4819C42.1656 9.62135 41.707 10.0516 42.1656 10.6971Z" fill="#095F72"/>
<path d="M43.3159 9.77463C43.5224 9.77463 44.5547 11.1087 44.5547 11.331L44.7612 11.5533V11.7757C44.7612 11.9979 44.7612 12.2203 44.9677 12.4426C44.9677 12.665 45.1742 12.8873 45.1742 12.8873C45.1742 13.1097 45.1742 13.332 45.1742 13.332V13.5544V13.7767C45.1742 13.999 45.1742 14.4437 44.9677 14.666C44.9677 14.8884 44.9677 15.1107 44.9677 15.3331C44.9677 15.5554 44.9677 15.7778 44.9677 15.7778C44.9677 16 44.9677 16 45.1742 16H45.3806C45.3806 16 45.5871 15.7778 45.5871 15.5554C45.5871 15.3331 45.7936 15.1107 45.7936 14.8884C46 14.8884 46 14.666 46 14.2213V13.999V13.7767C46 13.5544 46 13.332 46 13.1097C46 12.8873 45.7936 12.665 45.7936 12.4426C45.5871 12.2203 45.5871 11.9979 45.3806 11.7757C45.3806 11.5533 45.3806 11.5533 45.1742 11.331C45.1742 11.1087 44.9677 11.1087 44.9677 11.1087C44.9677 10.8863 43.7289 9.32995 43.5224 9.32995C43.1094 8.66295 42.6964 9.10761 43.3159 9.77463Z" fill="#095F72"/>
<path d="M46.1417 18.7952C46.1417 18.7952 46.3552 18.3668 46.5686 17.9384C46.9955 17.51 47.4223 16.8675 47.6358 15.7965C47.8492 14.9398 48.0625 13.6546 47.8492 12.3695C47.6358 10.8702 46.782 9.58501 45.2881 8.51406C44.8612 8.29987 44.6478 8.08569 44.221 7.65731C44.221 7.44312 43.7941 7.22892 43.3673 7.01473C42.5135 6.58635 41.6599 6.15798 40.5927 5.5154C39.5257 5.08702 38.6719 4.44445 37.6049 4.01607C36.7511 3.80188 35.684 3.3735 34.617 3.15931C33.9767 2.94512 33.5498 2.73093 32.9096 2.51674C32.2693 2.30254 31.8424 2.08835 31.2021 2.08835C30.135 1.65998 28.8545 1.44579 27.7874 1.2316C26.5069 1.0174 25.4398 0.803214 24.1592 0.803214C22.8787 0.589024 21.5982 0.589024 20.531 0.803214C19.4639 1.0174 18.3967 1.44579 17.5431 2.08835C17.1162 2.51674 16.6894 2.73093 16.2625 3.15931C15.8357 3.58768 15.4089 4.01607 15.1954 4.44445C14.7686 4.87283 14.3417 5.30121 13.9149 5.5154C13.4881 5.94378 12.8478 6.15798 12.4209 6.58635C11.3538 7.22892 10.5001 7.65731 9.43301 8.08568C8.36589 8.51406 7.5122 9.15664 6.65851 9.58501C6.23166 9.7992 5.80481 10.2276 5.59139 10.4418C5.16455 10.8702 4.95112 11.2986 4.7377 11.727C4.31085 12.5837 4.31085 13.4405 4.52427 14.2972C4.7377 15.154 5.16455 16.0107 5.37796 17.0817C5.59139 17.7242 5.16455 19.0094 4.52427 19.8661C3.88401 20.5087 3.24374 21.1513 2.8169 21.5797C1.74978 22.6507 1.32293 23.7216 1.32293 25.0067C1.32293 27.3628 2.81689 28.648 3.24374 29.7189C3.67059 30.5756 3.88401 31.6466 3.88401 32.5033C3.88401 33.3601 4.09744 34.4311 4.09744 35.0737C4.31085 35.7163 4.52427 36.3588 4.95112 37.0014C5.16455 37.2156 5.37797 37.4298 5.59139 37.644C5.59139 37.8582 5.80481 37.8582 5.80481 38.0723L6.23166 38.2865C7.08536 38.9291 7.93904 39.3575 8.36589 39.5717C9.00617 39.7859 9.21958 40 9.21958 40C9.21958 40 8.79274 40 8.15247 40C7.51221 39.7859 6.44508 39.5717 5.59139 38.9291C5.37797 38.9291 5.37797 38.7149 5.16455 38.7149C4.95112 38.7149 4.95112 38.5007 4.7377 38.5007C4.52427 38.2865 4.31085 38.0723 4.09744 37.644C3.67059 37.0014 3.24374 36.3588 3.03031 35.5021C2.8169 34.6453 2.8169 33.7886 2.60347 32.9317C2.60347 32.075 2.39005 31.2182 1.9632 30.3615C1.74978 29.9331 1.53636 29.5047 0.896087 28.648C0.469243 27.7912 -0.171029 26.7203 0.0423911 25.2209C0.0423911 23.9358 0.682663 22.2223 1.9632 20.9371C2.60348 20.2945 3.24374 19.8661 3.67059 19.2236C4.09743 18.581 4.31085 18.1526 4.31085 17.2959C4.31085 16.4391 3.88401 15.5823 3.67059 14.7256C3.45716 13.6546 3.45716 12.3695 3.88401 11.2986C4.09743 10.8702 4.52427 10.4418 4.7377 10.0134C5.16455 9.58502 5.5914 9.15664 6.01824 8.94245C6.87193 8.08569 7.93904 7.65731 8.79274 7.01473C9.85985 6.58635 10.7135 6.15798 11.7807 5.72959C12.2076 5.5154 12.6343 5.30121 13.0612 4.87283C13.4881 4.65864 13.9149 4.23026 14.3417 3.80188C14.7686 3.3735 15.1954 2.94512 15.6223 2.51674C16.0492 2.08835 16.4759 1.65998 16.9028 1.44579C17.7565 0.803214 19.0371 0.374833 20.1041 0.160642C21.3847 -0.0535475 22.6652 -0.0535475 23.9457 0.160642C25.2264 0.160642 26.5069 0.374833 27.5739 0.589024C28.8545 0.803214 29.9216 1.0174 31.2021 1.44579C31.8424 1.65998 32.2693 1.65998 32.9096 1.87417C33.5498 2.08835 33.9767 2.30254 34.617 2.30254C35.684 2.73093 36.7511 3.15931 38.0317 3.58768C39.0988 4.01607 39.9525 4.44445 40.8062 4.87283C41.6599 5.30121 42.727 5.72959 43.5807 6.15798C44.0076 6.58635 44.4343 6.80054 44.8612 7.01473C45.2881 7.22892 45.715 7.65731 46.1417 7.8715C46.782 8.51406 47.4223 9.15664 48.0625 9.7992C48.4894 10.656 48.7028 11.5128 48.9163 12.1553C49.1297 13.8688 48.9163 15.154 48.4894 16.2249C48.0625 17.2959 47.4223 17.9384 46.9955 18.3668C46.5686 18.7952 46.3552 18.7952 46.1417 18.7952Z" fill="#095F72"/>
<path d="M17.8944 23.0641C18.1099 23.4875 18.5408 24.9694 19.4026 26.4514C19.8335 27.0864 20.4799 27.9333 20.2644 28.145C20.0489 28.5683 19.618 28.5683 19.4026 28.5683C18.9717 28.5683 18.7563 28.5683 18.3253 28.3566C17.8944 28.3566 17.679 28.145 17.248 27.9333C16.6017 27.7216 15.7399 27.2982 15.0936 27.2982C14.2317 27.2982 13.5854 27.2982 12.9391 27.7216C12.2927 27.9333 11.6463 28.5683 11.4309 29.2035C11.2155 29.4152 11.2155 29.8386 11 30.262C11 30.6854 11 30.8971 11 31.3205C11.2155 32.5907 12.5081 33.4376 13.37 33.861C14.4472 34.0726 15.309 34.0726 16.1708 33.6493C16.8172 33.2259 17.248 32.8024 17.4635 32.5907C17.679 32.1673 17.679 31.9557 17.4635 31.9557C17.4635 31.9557 17.248 31.9557 17.0327 32.379C16.8172 32.5907 16.3863 33.0142 15.9553 33.0142C15.3091 33.2259 14.6627 33.2259 13.8008 33.0142C12.9391 32.8024 12.0772 32.1673 11.8618 31.1088C11.8618 30.8971 11.8618 30.6854 11.8618 30.4737C11.8618 30.262 11.8618 30.0503 12.0772 29.8386C12.2927 29.4152 12.7236 28.9918 13.1545 28.5683C13.5854 28.3566 14.2317 28.145 14.8781 28.145C15.5244 28.145 16.1708 28.3566 16.8172 28.5683C17.248 28.7801 17.4635 28.7801 17.8944 28.9918C18.3253 28.9918 18.7563 29.2035 19.1871 29.2035C19.1871 29.2035 19.4026 29.2035 19.8335 29.2035C20.0489 29.2035 20.4799 28.9918 20.9108 28.5683C21.1262 28.145 20.9108 27.5099 20.6953 27.2982C20.4799 26.8747 20.2644 26.663 20.0489 26.2397C19.1871 24.9694 18.7563 23.2758 18.5408 23.0641C17.4635 20.312 16.8172 20.312 17.8944 23.0641Z" fill="#095F72"/>
<path d="M44.0578 15C44.0578 15 44.2736 15 44.4894 15.4252C44.4894 15.6378 44.7051 16.0629 44.9209 16.7008C45.1368 17.126 45.3526 17.7638 45.5684 18.6142C45.7842 19.4646 45.7842 20.3149 46 21.378C46 21.5905 46 21.8031 46 22.2283C46 22.4409 46 22.6535 46 23.0788C46 23.7165 46 24.1417 46 24.7795C46 25.2048 45.7842 26.0551 45.7842 26.4803C45.7842 27.1181 45.5684 27.5433 45.3526 28.1811C45.3526 28.6063 45.1368 28.8189 45.1368 29.0314L44.9209 29.8819C44.7051 30.7323 44.4894 31.37 44.2736 32.0079C44.0578 32.6457 43.842 33.2834 43.4104 33.9212C43.1946 34.5591 42.763 35.1968 42.3314 35.8346C42.1156 36.2598 41.8998 36.685 41.4682 37.1102L40.8208 37.748C40.605 37.9606 40.3892 38.1732 40.1734 38.3857L39.526 39.2362C39.3102 39.4488 39.0943 39.6614 38.6628 39.874C38.2312 40.2991 37.5838 40.5117 37.1521 40.937C36.5048 41.1496 36.0732 41.5748 35.4258 41.5748C35.21 41.5748 34.7784 41.7874 34.5626 41.7874C34.3468 41.7874 33.9152 42 33.6994 42C33.052 42 32.6204 42 31.973 42C31.5414 42 30.894 42 30.4624 42C30.0308 42 29.3835 41.7874 28.9518 41.7874C28.5202 41.5748 28.0886 41.3622 27.657 41.3622C26.7938 40.9369 26.1464 40.7243 25.4991 40.2991C24.2042 39.6614 23.341 39.0236 22.9094 38.5983C22.4778 38.3857 22.0462 37.9606 21.6147 37.5354C21.183 37.1102 20.9672 36.8976 20.5356 36.4725C20.3198 36.0472 19.8883 35.8346 19.6725 35.4094C19.4567 35.1968 19.4567 35.1968 19.2408 34.9842L19.025 34.7716C19.025 34.7716 19.025 34.5591 18.8092 34.5591C18.3776 33.9212 18.3776 33.496 18.1618 33.0708C17.9461 32.6457 17.9461 32.6457 18.1618 32.4331C18.1618 32.4331 18.3776 32.4331 18.5934 32.8582C18.8092 33.0708 19.2408 33.496 19.4566 33.9212L19.6725 34.1339L19.8883 34.3465C20.104 34.5591 20.104 34.5591 20.3198 34.7716C20.5356 34.9842 20.9672 35.4094 21.183 35.622C21.6147 35.8346 21.8305 36.2598 22.262 36.4725C22.6936 36.685 23.1252 37.1102 23.5569 37.5354C23.9884 37.748 24.6358 38.3857 25.9306 39.0236C26.578 39.4488 27.2254 39.6614 28.0886 40.0866C28.5202 40.2991 28.9518 40.5117 29.3835 40.5117C29.815 40.7243 30.2466 40.7243 30.6782 40.7243C31.1098 40.7243 31.5414 40.7243 32.1888 40.7243C32.8362 40.7243 33.2679 40.7243 33.6994 40.7243C33.9152 40.7243 34.131 40.7243 34.3468 40.7243C34.5626 40.7243 34.7784 40.5117 35.21 40.5117C35.6416 40.2991 36.289 40.0866 36.7206 39.874C37.1521 39.6614 37.7996 39.2362 38.2312 39.0236L38.8786 38.5983L39.526 37.9606L40.1734 37.3228C40.3892 37.1102 40.605 36.8976 40.8208 36.685C41.2524 36.2598 41.684 35.8346 41.8998 35.1968C42.3314 34.5591 42.5472 34.1339 42.9787 33.496C43.1946 32.8582 43.6262 32.2205 43.842 31.5826C44.0578 30.9448 44.2736 30.3071 44.4894 29.6693L44.7051 28.8189C44.7051 28.6063 44.9209 28.1811 44.9209 27.9685C44.9209 27.3306 45.1368 26.6929 45.3526 26.0551C45.3526 25.4173 45.5684 24.7795 45.5684 24.3543C45.5684 23.9291 45.5684 23.2914 45.5684 22.8661C45.5684 22.6535 45.5684 22.2283 45.5684 22.0157C45.5684 21.8031 45.5684 21.5905 45.5684 21.1654C45.5684 20.1023 45.3526 19.252 45.1368 18.6142C44.4894 18.1889 44.4894 17.3386 44.2736 16.9134C44.0578 16.4882 44.0578 16.0629 43.842 15.6378C43.842 15.2126 43.842 15.2126 44.0578 15Z" fill="#095F72"/>
<path d="M39.6 27.0588C39.6 27.0588 40 26.8236 40.1999 26.5883C40.4 26.353 40.6 26.1177 40.6 25.8823V25.647V25.4117C40.6 25.1764 40.4 25.1764 40.4 25.1764C40.4 25.1764 40.4 24.9411 40.1999 24.9411H40H39.8C39.8 24.9411 39.8 24.9411 39.6 24.9411C39.4 24.9411 39.2 24.9411 39 24.9411C38.8 24.9411 38.8 24.9411 38.5999 24.9411C38.4 24.9411 38.4 24.9411 38.2 24.9411C38.2 24.9411 38 24.9411 38 24.7059V24.4706L38.2 24.2353C38.5999 24 38.8 24 39 24C39.2 24 39.4 24 39.8 24H40H40.1999C40.4 24 40.6 24.2353 40.6 24.2353C40.8 24.4706 40.8 24.7059 40.8 24.9411C40.8 25.1764 41 25.4117 41 25.647C41 25.8823 41 25.8823 41 26.1177C41 26.353 41 26.353 41 26.353C41 26.353 40.8 26.8235 40.6 27.2941C40.4 27.5294 40 27.7647 40 28C39.2 28 39.2 27.2941 39.6 27.0588Z" fill="#095F72"/>
<path d="M39 33.1111L38.7838 32.8888C38.5675 32.8888 38.5675 32.8888 38.3513 32.8888C38.1352 32.8888 37.919 32.8888 37.7027 32.8888C37.4865 32.8888 37.2703 32.8888 36.8378 32.8888H36.6216H36.4055C36.1892 32.8888 36.1893 32.8888 35.973 32.6666C35.7568 32.6666 35.5406 32.6666 35.3243 32.6666C35.1081 32.6666 34.8919 32.4444 34.8919 32.4444C34.8919 32.4444 34.6757 32.4444 34.6757 32.2222C34.6757 32.2222 34.4595 32.2222 34.4595 32C34.2433 32 34.0271 31.7778 34.0271 31.7778C33.5946 32 33.5946 31.7778 33.3784 31.7778C33.1622 31.7778 32.9459 31.3333 32.7297 31.1111C32.5136 30.8888 32.2974 30.6666 32.0811 30.4444L31.8649 30.2222C31.8649 30.2222 31.6487 30.2222 31.6487 30H31.4325L31.2162 30.2222C31.2162 30.4444 31.2162 30.4444 31 30.6666C31 30.8888 31 31.1111 31 31.5555V32C31.4325 32.4444 31.4325 32.6666 31.4325 32.6666C31.6487 32.8888 31.6487 33.1111 31.6487 33.1111C31.6487 33.1111 31.6487 33.3333 31.8649 33.5555C31.8649 33.7778 32.0811 34 32.0811 34C32.2974 34.2222 32.2974 34.2221 32.5136 34.4444C32.7297 34.6666 32.9459 34.8888 33.1622 35.1111C33.5946 35.5555 33.8109 35.5555 34.0271 35.7778C34.2433 35.7778 34.2433 36 34.4595 36C34.6757 36 34.8919 36 34.8919 36C35.1081 36 35.1081 36 35.3243 36H35.5406C35.7568 36 35.973 35.7778 35.973 35.5555L36.1892 35.3333C36.1892 35.3333 36.1893 35.1111 35.973 35.1111C35.7568 35.1111 35.7568 35.1111 35.5406 35.1111H35.3243C35.1081 35.1111 35.1081 35.1111 34.8919 35.1111C34.6757 35.1111 34.6757 35.1111 34.4595 34.8888C34.2433 34.8888 34.2433 34.6666 34.0271 34.6666C33.8109 34.6666 33.5946 34.4444 33.3784 34.2221C33.1622 34.2221 33.1622 34 32.9459 33.7778L32.7297 33.5555L32.5136 33.3333C32.5136 33.1111 32.2974 33.1111 32.2974 32.8888C32.2974 32.6666 32.0811 32.6666 32.0811 32.4444V32.2222V32C32.0811 32 32.0811 32 32.0811 31.7778C32.0811 31.7778 32.0811 31.7778 32.2974 31.7778C32.2974 31.7778 32.2974 31.7778 32.2974 32L32.5136 32.2222L32.7297 32.4444C33.1622 32.4444 33.3784 32.4444 33.5946 32.6666C33.8109 32.8888 34.0271 32.8888 34.2433 33.1111L34.4595 33.3333C34.4595 33.3333 34.6757 33.3333 34.6757 33.5555C34.8919 33.7778 35.1081 33.7778 35.3243 33.7778C35.5406 33.7778 35.7568 33.7778 35.973 33.7778C36.1893 33.7778 36.4055 34 36.4055 34H36.6216H36.8378C37.2703 34 37.4865 34 37.7027 34C37.919 34 38.1352 34 38.3513 33.7778C38.5675 33.7778 38.5675 33.5555 38.7838 33.5555C39 33.3333 39 33.3333 39 33.1111Z" fill="#095F72"/>
<path d="M32.2254 23C32.2254 23 31 23.4574 31 24.1436C31 25.0585 32.4705 25.2872 32.9607 24.6011C33.2058 23.9148 32.2254 23 32.2254 23Z" fill="#095F72"/>
<path d="M32.25 23.2478V23.423C32.25 23.423 32.25 23.423 32.25 23.5983C32.25 23.5983 32.25 23.5983 32 23.7735C32 23.7735 31.7499 23.7735 31.7499 23.9486C31.7499 23.9486 31.7499 23.9486 31.7499 24.1239H31.4999C31.4999 24.1239 31.4999 24.1239 31.4999 24.2991C31.4999 24.2991 31.4999 24.2991 31.4999 24.4743C31.4999 24.4743 31.4999 24.4743 31.7499 24.4743H32C32 24.4743 32 24.4743 32 24.2991L31.7499 24.1239C31.7499 24.1239 31.7499 24.1239 31.7499 23.9486C31.7499 23.9486 31.7499 23.9486 31.7499 23.7735C32 23.423 32 23.423 32.25 23.2478C32.5 23.0726 32.5 23.0726 32.5 23.0726C32.5 23.0726 32.5 23.0726 32.75 23.2478C32.75 23.2478 32.75 23.2478 33 23.2478C33 23.2478 33 23.2478 33.2501 23.423C33.2501 23.423 33.5001 23.423 33.5001 23.5983C33.5001 23.5983 33.75 23.7735 33.75 23.9486C33.75 23.9486 34 24.1239 34 24.2991V24.4743V24.6495V24.8248L33.75 25C33.75 25 33.75 25 33.5001 25H33.2501H33H32.75H32.5C32.5 25 32.5 25 32.25 25C32.25 25 32.25 25 32 25H31.7499C31.7499 25 31.4999 25 31.4999 24.8248L31.25 24.6495L31 24.4743V24.2991V24.1239C31 24.1239 31 24.1239 31 23.9486V23.7735L31.25 23.5983V23.423C31.25 23.423 31.25 23.423 31.25 23.2478C31.25 23.0726 31.4999 23.0726 31.4999 23.0726H31.7499C31.7499 22.8974 32 23.0726 32.25 23.2478C32 23.0726 32 23.0726 32.25 23.2478Z" fill="#095F72"/>
<path d="M41.6044 20C41.6044 20 40.7818 20.6637 41.056 21.3273C41.6044 21.991 42.1527 22.2123 42.7011 21.7698C43.2495 21.5486 42.9753 20.6637 42.4269 20.4425C41.8785 20.2212 41.6044 20 41.6044 20Z" fill="#095F72"/>
<path d="M41 20C41 20.25 41.25 20.25 41 20C41.25 20.25 41.25 20.25 41.25 20.4999V20.75V21C41.25 21 41.25 21 41.25 21.25C41.25 21.25 41 21.25 41 21.5C41 21.5 41 21.5 41 21.75C41 21.75 41 21.75 41 22C41 22 41 22 40.75 22C40.75 22 40.75 22 40.5 22C41 20.4999 41 20.25 41 20C41 19.75 41 19.75 41.25 19.5H41.5001H41.75H42H42.25C42.25 19.5 42.5 19.75 42.75 19.75L43 20V20.25V20.4999V20.75C43 21 43 21 42.75 21V21.25L42.5 21.5L42.25 21.75H42C42 21.75 42 21.75 41.75 21.75C41.75 21.75 41.75 21.75 41.5001 21.75C41.5001 21.75 41.5001 21.75 41.25 21.75H41C41 21.75 40.75 21.75 40.75 21.5L40.5 21.25L40.25 21V20.75L40 20.4999V20.25V20C40 20 40 20 40 19.75C40 19.5 40 19.5 40.25 19.25L40.5 19H40.75C40.75 20 41 20 41 20Z" fill="#095F72"/>
<path d="M24 40.862C24 40.862 24 40.6518 23.7867 40.4415C23.5733 40.2313 23.36 40.0211 22.9333 39.8109C22.5067 39.6007 22.08 39.1802 21.6533 38.9701C21.2266 38.5496 20.5867 38.1292 19.9467 37.7088L19.52 37.2884C19.3066 37.0782 19.3066 37.0782 19.0933 36.868C18.88 36.6577 18.4533 36.2373 18.0267 36.0271C17.6 35.8169 17.1733 35.6066 16.96 35.1863C16.5333 34.9761 16.32 34.5556 15.8933 34.1352C15.68 33.925 15.4666 33.7147 15.4666 33.5046C15.2533 33.2944 15.04 33.0842 15.04 33.0842C14.8267 32.6637 14.4 32.2433 14.4 31.8228C14.4 31.4025 14.6133 30.9821 14.8267 30.7718C15.2533 30.5616 15.68 30.3514 16.1067 29.9309C16.5333 29.7208 16.96 29.5106 17.3866 29.0902C17.6 28.8799 17.8133 28.6697 18.0267 28.4595C18.24 28.2493 18.4533 28.0391 18.4533 27.8289C18.6667 27.6187 18.6667 27.4085 18.88 27.1983C19.0933 26.988 19.0933 26.7778 19.0933 26.5676C19.3066 26.1472 19.3066 25.5166 19.3066 25.0961C19.3066 24.6757 19.3066 24.0451 19.3066 23.6247C19.3066 23.4145 19.3066 23.2042 19.0933 22.994C19.0933 22.7838 18.88 22.5736 18.88 22.3635C18.6667 21.943 18.4533 21.5226 18.24 21.3123C18.0267 20.8919 17.6 20.4716 17.3866 20.2613C17.1733 20.0511 16.7467 19.6307 16.32 19.6307C15.8933 19.4204 15.4666 19.4204 15.2533 19.2102C14.6133 19 13.9733 19 13.3333 19C12.0533 19 11.2 19.4204 10.9867 19.6307C10.56 19.8409 10.3467 20.0511 9.92 20.2613C9.49333 20.4716 9.28 20.8919 9.06666 21.1021C8.85333 21.3123 8.64 21.7328 8.42667 21.943C8.42667 22.1532 8.21333 22.1532 8.21333 22.3635V22.5736V22.7838C8 23.2042 8 23.6247 8 24.0451C8 24.2553 8 24.4655 8 24.4655C8 24.4655 8.21333 24.4655 8.42667 24.2553C8.64 24.0451 8.85333 23.6247 9.06666 23.2042V22.994L9.28 22.7838C9.28 22.5736 9.49333 22.5736 9.49333 22.3635C9.70667 22.1532 9.92 21.943 10.1333 21.7328C10.3467 21.5226 10.56 21.3123 10.7733 21.1021C10.9867 20.8919 11.4134 20.6817 11.6266 20.4716C11.84 20.2613 12.48 20.0511 13.5466 19.8409C13.9733 19.8409 14.6133 19.8409 15.2533 20.0511C15.4666 20.0511 15.8933 20.2613 16.1067 20.2613C16.32 20.4716 16.7467 20.4716 16.96 20.6817C17.1733 20.8919 17.3866 21.1021 17.6 21.5226C17.8133 21.943 18.0267 22.1532 18.24 22.5736C18.24 22.7838 18.4533 22.994 18.4533 22.994C18.4533 23.2042 18.4533 23.4145 18.6667 23.6247C18.6667 24.0451 18.6667 24.4655 18.6667 24.8859C18.6667 25.3064 18.6667 25.7268 18.4533 26.1472C18.4533 26.3574 18.24 26.5676 18.24 26.7778C18.24 26.988 18.0267 27.1983 18.0267 27.4085C17.8133 27.6187 17.8133 27.8289 17.6 28.0391C17.3866 28.2493 17.3866 28.4595 17.1733 28.4595C16.7467 28.6697 16.5333 29.0902 16.1067 29.3004C15.68 29.5106 15.04 29.7208 14.6133 30.1412C14.1867 30.5616 13.76 31.1923 13.76 31.8228C13.76 32.4535 14.1867 32.874 14.4 33.2944C14.6133 33.5046 14.8267 33.7147 15.04 33.925C15.2533 34.1352 15.2533 34.3454 15.4666 34.5556C15.8933 34.9761 16.1067 35.3965 16.5333 35.6066C16.96 35.8169 17.3866 36.2373 17.6 36.4475C18.0267 36.6577 18.24 37.0782 18.4533 37.2884C18.6667 37.4985 18.88 37.4985 18.88 37.7088L19.3066 38.1292C19.9467 38.5496 20.5867 38.9701 21.0133 39.3904C21.6533 39.8109 22.08 40.0211 22.5067 40.2313C22.9333 40.4415 23.36 40.6518 23.5733 40.6518C23.7867 41.0721 24 41.0721 24 40.862Z" fill="#095F72"/>
<path d="M7.14719 25C7.14719 25 6.93247 25 6.50304 25.4311C6.28832 25.6466 5.85888 26.2931 5.64416 26.9397C5.42944 27.5862 5.21472 28.4483 5 29.5259C5 30.6034 5.00001 31.8965 5.42944 32.9742C5.42944 33.1897 5.64416 33.6206 5.64416 33.8362C5.85888 34.0517 5.85888 34.4828 6.0736 34.6983C6.28831 35.3449 6.71775 35.9913 7.14719 36.6379C7.57663 37.2845 8.22078 37.7155 8.65022 38.3621C9.29439 39.0086 9.72379 39.4396 10.1532 40.0862C10.368 40.3017 10.7974 40.7328 11.0122 40.9483L12.0857 41.8103C12.7299 42.2414 13.374 42.888 14.0182 43.3189C14.6624 43.75 15.3065 44.3966 16.1654 44.8276C16.8096 45.2586 17.6684 45.9052 18.3126 46.3362C18.9567 46.7673 19.6009 47.1982 20.4598 47.6293C20.8892 47.8448 21.1039 48.0603 21.5333 48.2759C21.9628 48.4914 22.1775 48.7069 22.607 48.7069C23.0364 48.9224 23.2511 48.9224 23.6806 49.1379C24.11 49.3534 24.5395 49.3534 24.7541 49.5689C25.613 49.7845 26.2572 50 27.116 50C27.975 50 28.8338 50 29.478 49.7845C30.1222 49.5689 30.3368 49.3534 30.7663 49.3534C31.1957 49.1379 31.4104 48.9224 31.8399 48.7069C32.484 48.2759 32.9135 47.6293 33.3429 47.1982C33.7724 46.7673 34.2017 46.1207 34.6312 45.6896C34.8459 45.043 35.2754 44.6121 35.4901 43.9655C35.7048 43.3189 35.9195 42.6724 35.9195 42.2414C36.1342 41.1638 35.9195 39.8707 35.2754 39.0086C33.9871 37.2845 32.484 37.069 31.8399 36.8535C31.1957 36.6379 30.5515 36.6379 29.9074 36.6379C29.2632 36.6379 28.619 36.6379 27.975 36.8535C27.3308 36.8535 26.9013 37.069 26.2572 37.2845C26.0425 37.2845 25.8278 37.4999 25.613 37.4999C25.3983 37.4999 25.3983 37.7155 25.1836 37.7155C24.9688 37.7155 24.9688 37.931 24.9688 37.931C24.11 38.5776 23.8953 39.2242 23.8953 39.6551C23.8953 40.0862 23.8953 40.3017 23.8953 40.3017C23.8953 40.3017 24.11 40.0862 24.3247 39.6551C24.5395 39.2242 24.9688 38.7931 25.613 38.5776C25.613 38.5776 25.8278 38.5776 25.8278 38.3621L26.0425 38.1465C26.2572 38.1465 26.4718 37.931 26.6866 37.931C27.116 37.7155 27.5455 37.7155 28.1897 37.7155C28.8338 37.7155 29.2632 37.7155 29.9074 37.7155C30.5515 37.7155 31.1957 37.7155 31.8399 37.931C32.484 38.1465 33.5576 38.3621 34.6312 39.6551C35.0607 40.3017 35.2754 40.9483 35.2754 42.0258C35.2754 42.4569 35.0607 43.1034 34.8459 43.5344C34.6312 43.9655 34.4165 44.6121 34.2017 45.043C33.9871 45.4741 33.5576 46.1207 33.1282 46.5517C32.6987 46.9827 32.2693 47.6293 31.6252 47.8448C31.4104 48.0603 31.1957 48.2759 30.7663 48.2759C30.5515 48.4914 30.1222 48.4914 29.9074 48.7069C29.2632 48.9224 28.619 48.9224 27.975 48.9224C27.3308 48.9224 26.4718 48.7069 25.8278 48.4914C25.3983 48.4914 25.1836 48.2759 24.7541 48.2759C24.3247 48.0603 24.11 48.0603 23.6806 47.8448C23.2511 47.6293 23.0364 47.6293 22.607 47.4138C22.1775 47.1982 21.9628 47.1982 21.5333 46.9827C20.8892 46.5517 20.2451 46.3362 19.6009 45.9052C18.9567 45.4741 18.0979 45.0431 17.4537 44.3966C16.8096 43.9655 16.1654 43.3189 15.3065 42.888C14.6624 42.4569 14.0182 41.8103 13.374 41.3793L12.5152 40.5172C12.3004 40.3017 11.871 40.0862 11.6563 39.6551C11.0122 39.0086 10.5827 38.5776 9.93852 37.931C9.29438 37.2845 8.86494 36.8535 8.4355 36.2069C8.00607 35.7758 7.79135 35.1293 7.36191 34.4828C7.14719 34.2672 7.14719 33.8362 6.93247 33.6207C6.93247 33.4052 6.71775 32.9742 6.71775 32.7586C6.28832 31.6811 6.28832 30.3879 6.28832 29.5259C6.28832 28.4483 6.50304 27.8018 6.71775 26.9397C6.93247 26.2931 7.14719 25.8621 7.36191 25.4311C7.14719 25.2155 7.14719 25 7.14719 25Z" fill="#095F72"/>
</g>
<defs>
<clipPath id="clip0_41_771">
<rect width="49" height="50" fill="white"/>
</clipPath>
</defs>
</svg>
