<svg width="10" height="10" viewBox="0 0 10 10" fill="none" xmlns="http://www.w3.org/2000/svg">
<g clip-path="url(#clip0_41_720)">
<path d="M4.53867 2.32991C4.64627 2.48087 4.81766 2.5701 5 2.5701C5.18234 2.5701 5.35373 2.48087 5.46133 2.32991C5.82293 1.82262 6.39512 1.5 7.03175 1.5C8.10499 1.5 9 2.41963 9 3.58261C9 4.82873 8.3312 5.86633 7.41547 6.73632C6.62316 7.48901 5.71015 8.05768 5.01467 8.49087C5.00977 8.49391 5.00488 8.49696 5 8.5C4.99512 8.49696 4.99023 8.49391 4.98533 8.49087C4.28985 8.05768 3.37684 7.48901 2.58453 6.73632C1.66878 5.86633 1 4.82873 1 3.58261C1 2.41963 1.89499 1.5 2.96825 1.5C3.60488 1.5 4.17707 1.82262 4.53867 2.32991Z" fill="#E5432D" stroke="#E5432D" stroke-width="1.133" stroke-miterlimit="10" stroke-linejoin="round"/>
</g>
<defs>
<clipPath id="clip0_41_720">
<rect width="10" height="10" fill="white"/>
</clipPath>
</defs>
</svg>
