<svg width="32" height="32" viewBox="0 0 32 32" fill="none" xmlns="http://www.w3.org/2000/svg">
<g clip-path="url(#clip0_41_797)">
<path d="M0 7C0 3.13401 3.13401 0 7 0H25C28.866 0 32 3.13401 32 7V25C32 28.866 28.866 32 25 32H7C3.13401 32 0 28.866 0 25V7Z" fill="#ED812B"/>
<path d="M16.5276 9.86377C17.6313 9.86377 18.5695 10.7449 18.5695 11.9015C18.5695 13.0029 17.6866 13.9391 16.5276 13.9391C15.3687 13.9391 14.4857 13.058 14.4857 11.9015C14.4857 10.7449 15.3687 9.86377 16.5276 9.86377ZM16.5276 16.7478C19.2317 16.7478 21.4392 14.545 21.4392 11.8464C21.384 9.20291 19.2317 7 16.5276 7C13.8235 7 11.616 9.20291 11.616 11.9015C11.616 14.6 13.8235 16.7478 16.5276 16.7478ZM18.4591 20.7681C19.4524 20.5479 20.3907 20.1623 21.3288 19.6116C21.9911 19.171 22.2118 18.2899 21.7703 17.629C21.3288 16.9681 20.4458 16.7478 19.7836 17.1884C17.7969 18.4551 15.2031 18.4551 13.2165 17.1884C12.5542 16.7478 11.6712 16.9681 11.2297 17.629C10.7882 18.2899 11.0089 19.171 11.6712 19.6116C12.5542 20.1623 13.4924 20.5479 14.5409 20.7681L11.7816 23.5218C11.2297 24.0725 11.2297 25.0087 11.7816 25.5595C12.0575 25.8348 12.4438 26 12.7749 26C13.106 26 13.4924 25.8348 13.7683 25.5595L16.4724 22.8609L19.1765 25.5595C19.7284 26.1101 20.6666 26.1101 21.2184 25.5595C21.7703 25.0087 21.7703 24.0725 21.2184 23.5218L18.4591 20.7681Z" fill="white"/>
</g>
<defs>
<clipPath id="clip0_41_797">
<rect width="32" height="32" fill="white"/>
</clipPath>
</defs>
</svg>
