<svg width="71" height="65" viewBox="0 0 71 65" fill="none" xmlns="http://www.w3.org/2000/svg">
<g clip-path="url(#clip0_41_747)">
<path d="M62.0526 16.823C62.7546 17.0529 63.4566 17.2826 64.1604 17.512C63.4325 17.3721 62.6912 17.226 61.9951 17.0528L62.0526 16.823ZM62.0526 16.823L62.1728 16.3349L62.0515 16.8226" fill="#3DB8D3" stroke="#3DB8D3" stroke-width="1.47917"/>
</g>
<g clip-path="url(#clip1_41_747)">
<path d="M24.4118 45.7889C24.8161 46.4071 25.2206 47.0251 25.6266 47.644C25.1458 47.08 24.6585 46.5026 24.2232 45.9324L24.4118 45.7889ZM24.4118 45.7889L24.8106 45.483L24.4111 45.7879" fill="#3DB8D3" stroke="#3DB8D3" stroke-width="1.47917"/>
</g>
<g clip-path="url(#clip2_41_747)">
<mask id="path-3-inside-1_41_747" fill="white">
<path d="M56.5952 59.6411C56.105 60.8236 56.4508 62.189 55.6301 63.1184C54.975 63.093 54.8265 62.6378 54.6865 62.2344C54.2114 60.8359 53.769 59.4297 53.3156 58.0241C53.2754 57.9047 53.2355 57.7911 53.1825 57.6435C51.7669 57.2103 50.346 56.7833 48.9359 56.3498C48.4734 56.2088 48.0106 56.0619 47.5623 55.8795C47.2958 55.7733 47.058 55.5901 46.857 55.4685C46.8821 54.951 47.1684 54.9227 47.4382 54.8953C48.3084 54.8095 49.1779 54.7123 50.0494 54.6496C51.1248 54.5693 52.2077 54.5233 53.3394 54.457C53.278 52.9357 52.4616 51.5746 52.8482 49.946C54.2811 50.6738 54.8079 52.104 55.7613 53.1556C57.5331 52.5764 59.3049 51.9973 61.0775 51.4296C61.1482 51.4081 61.2413 51.4838 61.3264 51.5194C61.6309 51.9886 61.3768 52.3804 61.1484 52.7358C60.3504 53.9595 59.5345 55.1611 58.7189 56.3684C58.5662 56.5977 58.4021 56.8218 58.2182 57.0877C58.5757 57.8959 59.0983 58.59 59.5987 59.2855C60.0331 59.892 60.5202 60.4549 60.9704 61.0489C61.2825 61.4597 61.2773 61.4658 61.2518 62.0703C60.8957 62.4216 60.4988 62.2651 60.1661 62.0701C59.4266 61.6437 58.712 61.1696 58.0085 60.6947C57.5355 60.3745 57.0874 60.0065 56.5952 59.6411ZM53.839 52.0158C53.7933 53.0331 54.141 53.9578 54.1315 55.0252C52.347 55.1993 50.6201 55.1264 48.9345 55.4744C49.1827 55.6454 49.4313 55.7295 49.6851 55.8074C50.7001 56.1132 51.7105 56.4367 52.7344 56.7072C53.4152 56.8877 53.8253 57.2695 54.0387 57.9818C54.3552 59.0359 54.7422 60.0627 55.1074 61.0965C55.16 61.2384 55.2885 61.3526 55.4156 61.5365C55.7497 60.5255 55.7336 59.4944 56.264 58.5241C57.4708 59.3637 58.5907 60.1388 59.7048 60.9085C59.7252 60.8783 59.7456 60.8481 59.7664 60.8237C59.0074 59.5926 58.254 58.3612 57.4889 57.1188C57.6919 56.7069 57.8323 56.3624 58.0249 56.0554C58.638 55.0802 59.269 54.1272 59.888 53.1575C60.0045 52.9709 60.0806 52.7578 60.2435 52.4177C58.5018 52.943 56.9233 53.4181 55.2902 53.9079C54.8042 53.2696 54.3247 52.6483 53.8448 52.0213L53.839 52.0158Z"/>
</mask>
<path d="M56.5952 59.6411C56.105 60.8236 56.4508 62.189 55.6301 63.1184C54.975 63.093 54.8265 62.6378 54.6865 62.2344C54.2114 60.8359 53.769 59.4297 53.3156 58.0241C53.2754 57.9047 53.2355 57.7911 53.1825 57.6435C51.7669 57.2103 50.346 56.7833 48.9359 56.3498C48.4734 56.2088 48.0106 56.0619 47.5623 55.8795C47.2958 55.7733 47.058 55.5901 46.857 55.4685C46.8821 54.951 47.1684 54.9227 47.4382 54.8953C48.3084 54.8095 49.1779 54.7123 50.0494 54.6496C51.1248 54.5693 52.2077 54.5233 53.3394 54.457C53.278 52.9357 52.4616 51.5746 52.8482 49.946C54.2811 50.6738 54.8079 52.104 55.7613 53.1556C57.5331 52.5764 59.3049 51.9973 61.0775 51.4296C61.1482 51.4081 61.2413 51.4838 61.3264 51.5194C61.6309 51.9886 61.3768 52.3804 61.1484 52.7358C60.3504 53.9595 59.5345 55.1611 58.7189 56.3684C58.5662 56.5977 58.4021 56.8218 58.2182 57.0877C58.5757 57.8959 59.0983 58.59 59.5987 59.2855C60.0331 59.892 60.5202 60.4549 60.9704 61.0489C61.2825 61.4597 61.2773 61.4658 61.2518 62.0703C60.8957 62.4216 60.4988 62.2651 60.1661 62.0701C59.4266 61.6437 58.712 61.1696 58.0085 60.6947C57.5355 60.3745 57.0874 60.0065 56.5952 59.6411ZM53.839 52.0158C53.7933 53.0331 54.141 53.9578 54.1315 55.0252C52.347 55.1993 50.6201 55.1264 48.9345 55.4744C49.1827 55.6454 49.4313 55.7295 49.6851 55.8074C50.7001 56.1132 51.7105 56.4367 52.7344 56.7072C53.4152 56.8877 53.8253 57.2695 54.0387 57.9818C54.3552 59.0359 54.7422 60.0627 55.1074 61.0965C55.16 61.2384 55.2885 61.3526 55.4156 61.5365C55.7497 60.5255 55.7336 59.4944 56.264 58.5241C57.4708 59.3637 58.5907 60.1388 59.7048 60.9085C59.7252 60.8783 59.7456 60.8481 59.7664 60.8237C59.0074 59.5926 58.254 58.3612 57.4889 57.1188C57.6919 56.7069 57.8323 56.3624 58.0249 56.0554C58.638 55.0802 59.269 54.1272 59.888 53.1575C60.0045 52.9709 60.0806 52.7578 60.2435 52.4177C58.5018 52.943 56.9233 53.4181 55.2902 53.9079C54.8042 53.2696 54.3247 52.6483 53.8448 52.0213L53.839 52.0158Z" fill="#3DB8D3"/>
<path d="M56.5952 59.6411L57.477 58.4534L55.9548 57.3233L55.2288 59.0746L56.5952 59.6411ZM55.6301 63.1184L55.5727 64.5964L56.2741 64.6236L56.7388 64.0975L55.6301 63.1184ZM54.6865 62.2344L53.286 62.7102L53.289 62.7191L54.6865 62.2344ZM53.3156 58.0241L54.7233 57.57L54.7204 57.5609L54.7174 57.5519L53.3156 58.0241ZM53.1825 57.6435L54.5748 57.1441L54.3245 56.446L53.6153 56.229L53.1825 57.6435ZM48.9359 56.3498L49.3705 54.936L49.3674 54.935L48.9359 56.3498ZM47.5623 55.8795L48.12 54.5094L48.1096 54.5053L47.5623 55.8795ZM46.857 55.4685L45.3795 55.3969L45.3368 56.2777L46.0913 56.7341L46.857 55.4685ZM47.4382 54.8953L47.2932 53.4232L47.2888 53.4237L47.4382 54.8953ZM50.0494 54.6496L50.1554 56.125L50.1596 56.1247L50.0494 54.6496ZM53.3394 54.457L53.4258 55.9336L54.8759 55.8487L54.8173 54.3974L53.3394 54.457ZM52.8482 49.946L53.518 48.6272L51.8428 47.7763L51.409 49.6044L52.8482 49.946ZM55.7613 53.1556L54.6654 54.1491L55.3095 54.8595L56.2209 54.5616L55.7613 53.1556ZM61.0775 51.4296L60.6467 50.0146L60.6365 50.0177L60.6263 50.0209L61.0775 51.4296ZM61.3264 51.5194L62.5673 50.7143L62.3185 50.3309L61.8969 50.1547L61.3264 51.5194ZM61.1484 52.7358L62.3874 53.5438L62.3927 53.5355L61.1484 52.7358ZM58.7189 56.3684L57.4932 55.5404L57.488 55.5483L58.7189 56.3684ZM58.2182 57.0877L57.0016 56.2465L56.5302 56.9282L56.8655 57.6861L58.2182 57.0877ZM59.5987 59.2855L60.8014 58.4243L60.7993 58.4215L59.5987 59.2855ZM60.9704 61.0489L59.7916 61.9424L59.7926 61.9437L60.9704 61.0489ZM61.2518 62.0703L62.2907 63.1232L62.7051 62.7143L62.7296 62.1327L61.2518 62.0703ZM60.1661 62.0701L60.9143 60.794L60.9049 60.7886L60.1661 62.0701ZM58.0085 60.6947L57.1792 61.9196L57.181 61.9208L58.0085 60.6947ZM53.839 52.0158L54.847 50.9333L52.5048 48.7525L52.3613 51.9494L53.839 52.0158ZM54.1315 55.0252L54.2751 56.4974L55.5988 56.3683L55.6106 55.0384L54.1315 55.0252ZM48.9345 55.4744L48.6354 54.0258L45.2418 54.7265L48.0952 56.6925L48.9345 55.4744ZM49.6851 55.8074L49.2511 57.2214L49.2583 57.2236L49.6851 55.8074ZM52.7344 56.7072L53.1134 55.2774L53.1123 55.2771L52.7344 56.7072ZM54.0387 57.9818L52.6218 58.4064L52.6221 58.4072L54.0387 57.9818ZM55.1074 61.0965L53.7126 61.5892L53.7165 61.6001L53.7205 61.6109L55.1074 61.0965ZM55.4156 61.5365L54.1988 62.3775L55.8879 64.8216L56.8201 62.0006L55.4156 61.5365ZM56.264 58.5241L57.1087 57.3099L55.7562 56.3689L54.966 57.8147L56.264 58.5241ZM59.7048 60.9085L58.8641 62.1255L60.0939 62.9751L60.9306 61.7365L59.7048 60.9085ZM59.7664 60.8237L60.8938 61.7812L61.5894 60.9622L61.0255 60.0475L59.7664 60.8237ZM57.4889 57.1188L56.1621 56.465L55.8007 57.1984L56.2294 57.8945L57.4889 57.1188ZM58.0249 56.0554L56.7726 55.2681L56.7717 55.2695L58.0249 56.0554ZM59.888 53.1575L61.1348 53.9534L61.1388 53.9471L61.1427 53.9409L59.888 53.1575ZM60.2435 52.4177L61.5775 53.0568L63.0256 50.0338L59.8165 51.0016L60.2435 52.4177ZM55.2902 53.9079L54.1134 54.804L54.734 55.6191L55.7152 55.3247L55.2902 53.9079ZM53.8448 52.0213L55.0195 51.1224L54.9439 51.0235L54.8528 50.9387L53.8448 52.0213ZM55.2288 59.0746C54.8856 59.9027 54.8281 60.828 54.7694 61.287C54.696 61.8613 54.6133 62.0351 54.5214 62.1392L56.7388 64.0975C57.4676 63.2723 57.6224 62.2987 57.7038 61.6623C57.8 60.9106 57.8147 60.562 57.9616 60.2075L55.2288 59.0746ZM55.6874 61.6403C55.695 61.6406 55.7688 61.6455 55.872 61.6956C55.9789 61.7475 56.0597 61.8199 56.1115 61.8833C56.1561 61.9381 56.1672 61.9717 56.1552 61.9443C56.14 61.9098 56.1248 61.8671 56.084 61.7496L53.289 62.7191C53.3367 62.8563 53.485 63.3436 53.8188 63.7529C54.2381 64.2671 54.8446 64.5682 55.5727 64.5964L55.6874 61.6403ZM56.0871 61.7585C55.6168 60.3745 55.1811 58.9892 54.7233 57.57L51.9079 58.4783C52.3569 59.8702 52.8059 61.2973 53.286 62.7102L56.0871 61.7585ZM54.7174 57.5519C54.673 57.4202 54.6296 57.2968 54.5748 57.1441L51.7902 58.1429C51.8413 58.2854 51.8778 58.3893 51.9138 58.4964L54.7174 57.5519ZM53.6153 56.229C52.1835 55.791 50.7861 55.3711 49.3705 54.936L48.5013 57.7637C49.9059 58.1955 51.3502 58.6297 52.7498 59.0579L53.6153 56.229ZM49.3674 54.935C48.9094 54.7953 48.5016 54.6648 48.12 54.5095L47.0046 57.2495C47.5196 57.4591 48.0375 57.6223 48.5043 57.7647L49.3674 54.935ZM48.1096 54.5053C48.0999 54.5014 48.0622 54.4842 47.9735 54.4282C47.9293 54.4004 47.8868 54.3723 47.8263 54.3326C47.7726 54.2974 47.6991 54.2492 47.6226 54.2029L46.0913 56.7341C46.2098 56.8058 46.1679 56.7872 46.3967 56.9313C46.5437 57.0239 46.7583 57.1514 47.0151 57.2537L48.1096 54.5053ZM48.3344 55.5402C48.3343 55.5421 48.3331 55.5657 48.3246 55.6055C48.316 55.6458 48.2992 55.7061 48.2663 55.7782C48.1934 55.938 48.0691 56.0955 47.8987 56.2137C47.744 56.3209 47.6077 56.3564 47.5604 56.367C47.5243 56.3751 47.5028 56.3755 47.5877 56.3669L47.2888 53.4237C47.2442 53.4282 46.6922 53.4503 46.213 53.7826C45.5961 54.2103 45.4053 54.8653 45.3795 55.3969L48.3344 55.5402ZM47.5833 56.3673C48.4794 56.279 49.3099 56.1857 50.1554 56.125L49.9434 53.1743C49.0458 53.2388 48.1374 53.3401 47.2932 53.4232L47.5833 56.3673ZM50.1596 56.1247C51.2211 56.0454 52.2608 56.0018 53.4258 55.9336L53.2529 52.9804C52.1547 53.0447 51.0285 53.0932 49.9392 53.1746L50.1596 56.1247ZM54.8173 54.3974C54.7795 53.4606 54.5003 52.5072 54.3696 51.9202C54.2207 51.2514 54.1727 50.7704 54.2873 50.2875L51.409 49.6044C51.137 50.7502 51.304 51.764 51.482 52.5633C51.6782 53.4444 51.8378 53.9321 51.8614 54.5166L54.8173 54.3974ZM52.1783 51.2648C52.5971 51.4775 52.9227 51.8063 53.2963 52.3103C53.5991 52.7187 54.1327 53.5614 54.6654 54.1491L56.8572 52.1621C56.4366 51.6982 56.23 51.3 55.6728 50.5484C55.1864 49.8924 54.5321 49.1423 53.518 48.6272L52.1783 51.2648ZM56.2209 54.5616C57.9934 53.9822 59.761 53.4044 61.5286 52.8383L60.6263 50.0209C58.8489 50.5901 57.0728 51.1707 55.3017 51.7496L56.2209 54.5616ZM61.5082 52.8447C61.2016 52.938 60.9424 52.9034 60.8009 52.8707C60.6647 52.8392 60.5717 52.794 60.5522 52.7846C60.5351 52.7763 60.5134 52.7644 60.559 52.789C60.583 52.802 60.661 52.8445 60.756 52.8842L61.8969 50.1547C61.9493 50.1766 61.9837 50.1963 61.964 50.1856C61.9603 50.1836 61.9576 50.1822 61.9503 50.1782C61.9442 50.1749 61.9354 50.1701 61.9256 50.1649C61.9067 50.1548 61.8766 50.1389 61.8408 50.1216C61.7786 50.0915 61.6438 50.0292 61.4675 49.9885C61.286 49.9465 60.9887 49.9105 60.6467 50.0146L61.5082 52.8447ZM60.0856 52.3245C60.0559 52.2788 60.0124 52.19 59.9948 52.0661C59.9774 51.9444 59.993 51.845 60.0087 51.7865C60.0224 51.7358 60.0349 51.7204 60.0162 51.7547C59.9953 51.793 59.967 51.8381 59.904 51.9361L62.3927 53.5355C62.4784 53.4022 62.741 53.0183 62.8657 52.5541C63.02 51.9799 62.9651 51.3274 62.5673 50.7143L60.0856 52.3245ZM59.9094 51.9279C59.1196 53.139 58.312 54.3284 57.4932 55.5405L59.9447 57.1964C60.757 55.9938 61.5812 54.7801 62.3874 53.5438L59.9094 51.9279ZM57.488 55.5483C57.3396 55.771 57.2203 55.9302 57.0016 56.2465L59.4349 57.929C59.5839 57.7135 59.7928 57.4244 59.9499 57.1886L57.488 55.5483ZM56.8655 57.6861C57.2992 58.6666 57.9309 59.5002 58.3981 60.1495L60.7993 58.4215C60.2657 57.6799 59.8522 57.1252 59.571 56.4893L56.8655 57.6861ZM58.3961 60.1466C58.8182 60.7361 59.4474 61.4883 59.7916 61.9424L62.1493 60.1555C61.593 59.4215 61.2479 59.048 60.8014 58.4243L58.3961 60.1466ZM59.7926 61.9437C59.8118 61.969 59.8281 61.9905 59.8428 62.01C59.8573 62.0294 59.8689 62.045 59.8784 62.058C59.8984 62.0854 59.9031 62.0931 59.9006 62.0892C59.8973 62.0839 59.8817 62.0588 59.8629 62.0187C59.8535 61.9984 59.8437 61.9753 59.8342 61.9495C59.8247 61.9237 59.8164 61.8974 59.8093 61.8709C59.7948 61.8171 59.7883 61.7732 59.7854 61.7458C59.7827 61.721 59.7833 61.7111 59.7834 61.7263C59.7835 61.742 59.7832 61.7697 59.7815 61.82C59.7807 61.8443 59.7796 61.8715 59.7783 61.9032C59.777 61.9353 59.7756 61.9689 59.774 62.0078L62.7296 62.1327C62.7352 62.0006 62.7428 61.8399 62.7416 61.7006C62.7403 61.5498 62.7296 61.339 62.6662 61.103C62.541 60.6371 62.2507 60.2889 62.1482 60.1541L59.7926 61.9437ZM60.2129 61.0173C60.2648 60.9662 60.3599 60.8943 60.4993 60.8466C60.6378 60.7991 60.7645 60.7945 60.8557 60.8041C60.8988 60.8087 60.9316 60.8161 60.9522 60.8217C60.9728 60.8274 60.9843 60.832 60.9858 60.8326C60.9872 60.8332 60.9819 60.8311 60.9689 60.8244C60.9559 60.8177 60.9382 60.8081 60.9142 60.794L59.418 63.3461C59.6237 63.4667 60.0323 63.6919 60.5447 63.746C61.1563 63.8107 61.7871 63.6201 62.2907 63.1232L60.2129 61.0173ZM60.9049 60.7886C60.2146 60.3906 59.5375 59.9421 58.8359 59.4687L57.181 61.9208C57.8866 62.397 58.6387 62.8968 59.4273 63.3515L60.9049 60.7886ZM58.8377 59.4699C58.3933 59.169 58.0536 58.8816 57.477 58.4534L55.7135 60.8287C56.1213 61.1315 56.6777 61.5801 57.1792 61.9196L58.8377 59.4699ZM52.3613 51.9494C52.3307 52.6317 52.4337 53.2599 52.5117 53.7393C52.5959 54.2566 52.6558 54.627 52.6524 55.012L55.6106 55.0384C55.6167 54.356 55.5075 53.7304 55.4316 53.2641C55.3496 52.76 55.3016 52.4172 55.3167 52.0821L52.3613 51.9494ZM53.9879 53.553C53.1377 53.636 52.3306 53.6579 51.4156 53.7076C50.5324 53.7556 49.5898 53.8288 48.6354 54.0258L49.2335 56.9231C49.9648 56.7721 50.7285 56.7077 51.5762 56.6616C52.3922 56.6172 53.3409 56.5885 54.2751 56.4974L53.9879 53.553ZM48.0952 56.6925C48.5422 57.0004 48.9773 57.1374 49.2511 57.2214L50.1191 54.3933C49.8852 54.3215 49.8231 54.2904 49.7737 54.2564L48.0952 56.6925ZM49.2583 57.2236C50.2408 57.5197 51.2999 57.8581 52.3566 58.1373L53.1123 55.2771C52.1211 55.0153 51.1593 54.7067 50.1119 54.3911L49.2583 57.2236ZM52.3554 58.137C52.4369 58.1586 52.4835 58.1792 52.5071 58.1916C52.5187 58.1977 52.5254 58.2022 52.5287 58.2046C52.5319 58.2069 52.5334 58.2082 52.5341 58.2089C52.5347 58.2095 52.5365 58.2113 52.5395 58.2151C52.5425 58.2191 52.5481 58.2269 52.5555 58.24C52.5706 58.2665 52.5952 58.3177 52.6218 58.4064L55.4557 57.5572C55.294 57.0176 55.0262 56.5032 54.5896 56.0813C54.1529 55.6594 53.6362 55.416 53.1134 55.2774L52.3554 58.137ZM52.6221 58.4072C52.9521 59.5064 53.3611 60.594 53.7126 61.5892L56.5021 60.6039C56.1232 59.5313 55.7584 58.5654 55.4554 57.5564L52.6221 58.4072ZM53.7205 61.6109C53.8331 61.9144 54.0057 62.1324 54.0718 62.2163C54.1717 62.3431 54.1703 62.3362 54.1988 62.3775L56.6325 60.6955C56.5753 60.6129 56.5218 60.5435 56.4804 60.4913C56.4602 60.4658 56.4408 60.4419 56.4271 60.4248C56.4118 60.4059 56.4028 60.3947 56.3953 60.3851C56.379 60.3645 56.3888 60.3754 56.4061 60.4025C56.4253 60.4325 56.4615 60.4941 56.4942 60.5821L53.7205 61.6109ZM56.8201 62.0006C57.0229 61.3867 57.1297 60.7274 57.215 60.3132C57.3112 59.8458 57.4049 59.5207 57.5619 59.2335L54.966 57.8147C54.5926 58.4978 54.4292 59.1734 54.3174 59.7168C54.1946 60.3135 54.1424 60.6753 54.0111 61.0724L56.8201 62.0006ZM55.4192 59.7383C56.6279 60.5792 57.7493 61.3553 58.8641 62.1255L60.5456 59.6915C59.4322 58.9223 58.3137 58.1482 57.1087 57.3099L55.4192 59.7383ZM60.9306 61.7365C60.9361 61.7283 60.9387 61.7245 60.9408 61.7214C60.9427 61.7186 60.9422 61.7194 60.9402 61.7222C60.9382 61.725 60.9333 61.7318 60.9262 61.7411C60.9191 61.7503 60.9082 61.7643 60.8938 61.7812L58.6389 59.8662C58.5551 59.9649 58.4875 60.0681 58.4791 60.0805L60.9306 61.7365ZM61.0255 60.0475C60.2623 58.8094 59.5211 57.5978 58.7484 56.3431L56.2294 57.8945C56.987 59.1246 57.7526 60.3758 58.5072 61.5999L61.0255 60.0475ZM58.8157 57.7726C59.0815 57.2332 59.1381 57.0643 59.278 56.8413L56.7717 55.2695C56.5266 55.6604 56.3022 56.1806 56.1621 56.465L58.8157 57.7726ZM59.2771 56.8427C59.8934 55.8625 60.4913 54.9615 61.1348 53.9534L58.6412 52.3616C58.0467 53.2929 57.3826 54.2979 56.7726 55.2681L59.2771 56.8427ZM61.1427 53.9409C61.2559 53.7596 61.3373 53.5845 61.3958 53.4555C61.4618 53.3097 61.5051 53.208 61.5775 53.0568L58.9095 51.7787C58.8191 51.9674 58.7429 52.1424 58.701 52.2349C58.6515 52.344 58.6366 52.3688 58.6333 52.3741L61.1427 53.9409ZM59.8165 51.0016C58.0752 51.5266 56.4974 52.0015 54.8652 52.4911L55.7152 55.3247C57.3491 54.8346 58.9283 54.3593 60.6706 53.8339L59.8165 51.0016ZM56.4671 53.0118C55.9807 52.373 55.4934 51.7417 55.0195 51.1224L52.6701 52.9201C53.1559 53.555 53.6277 54.1662 54.1134 54.804L56.4671 53.0118ZM54.8528 50.9387L54.847 50.9333L52.831 53.0983L52.8369 53.1038L54.8528 50.9387Z" fill="#3DB8D3" mask="url(#path-3-inside-1_41_747)"/>
</g>
<defs>
<clipPath id="clip0_41_747">
<rect width="23.6667" height="28.1042" fill="white" transform="translate(48.8125 36.9792) rotate(-132.029)"/>
</clipPath>
<clipPath id="clip1_41_747">
<rect width="23.6667" height="28.1042" fill="white" transform="translate(1.47919 53.25) rotate(-93.3509)"/>
</clipPath>
<clipPath id="clip2_41_747">
<rect width="13.3125" height="14.7917" fill="white" transform="translate(47.3333 63.6042) rotate(-93.3509)"/>
</clipPath>
</defs>
</svg>
