<svg width="48" height="44" viewBox="0 0 48 44" fill="none" xmlns="http://www.w3.org/2000/svg">
<g clip-path="url(#clip0_41_740)">
<path d="M41.9511 11.3733C42.4256 11.5287 42.9002 11.684 43.376 11.8391C42.884 11.7446 42.3828 11.6458 41.9122 11.5287L41.9511 11.3733ZM41.9511 11.3733L42.0323 11.0433L41.9503 11.373" fill="#3DB8D3" stroke="#3DB8D3"/>
</g>
<g clip-path="url(#clip1_41_740)">
<path d="M16.5037 30.9559C16.7771 31.3738 17.0506 31.7916 17.325 32.21C17 31.8287 16.6705 31.4384 16.3763 31.0529L16.5037 30.9559ZM16.5037 30.9559L16.7734 30.7491L16.5033 30.9552" fill="#3DB8D3" stroke="#3DB8D3"/>
</g>
<g clip-path="url(#clip2_41_740)">
<mask id="path-3-inside-1_41_740" fill="white">
<path d="M38.2616 40.3207C37.9302 41.1202 38.164 42.0433 37.6091 42.6716C37.1662 42.6544 37.0658 42.3467 36.9712 42.0739C36.65 41.1285 36.3509 40.1778 36.0444 39.2276C36.0172 39.1469 35.9902 39.0701 35.9544 38.9702C34.9973 38.6774 34.0368 38.3887 33.0834 38.0957C32.7708 38.0003 32.4579 37.901 32.1548 37.7777C31.9746 37.7059 31.8138 37.5821 31.678 37.4999C31.6949 37.15 31.8885 37.1308 32.0709 37.1123C32.6592 37.0543 33.247 36.9886 33.8362 36.9462C34.5633 36.8919 35.2954 36.8608 36.0604 36.816C36.0189 35.7875 35.467 34.8674 35.7283 33.7663C36.6971 34.2583 37.0533 35.2253 37.6978 35.9362C38.8956 35.5446 40.0935 35.1531 41.2918 34.7693C41.3396 34.7548 41.4026 34.806 41.4601 34.83C41.6659 35.1472 41.4942 35.4121 41.3398 35.6524C40.8003 36.4797 40.2487 37.292 39.6973 38.1082C39.5941 38.2632 39.4831 38.4148 39.3588 38.5945C39.6005 39.1409 39.9538 39.6102 40.2921 40.0803C40.5857 40.4904 40.9151 40.8709 41.2195 41.2725C41.4304 41.5502 41.4269 41.5543 41.4097 41.963C41.1689 42.2005 40.9006 42.0947 40.6757 41.9629C40.1758 41.6746 39.6926 41.3541 39.217 41.0331C38.8973 40.8166 38.5943 40.5678 38.2616 40.3207ZM36.3982 35.1656C36.3673 35.8534 36.6024 36.4785 36.596 37.2001C35.3896 37.3178 34.2221 37.2686 33.0825 37.5039C33.2503 37.6195 33.4184 37.6763 33.5899 37.7289C34.2761 37.9357 34.9592 38.1544 35.6515 38.3373C36.1117 38.4593 36.389 38.7174 36.5332 39.199C36.7472 39.9116 37.0088 40.6057 37.2557 41.3047C37.2913 41.4006 37.3782 41.4778 37.4641 41.6021C37.6899 40.9186 37.6791 40.2216 38.0376 39.5656C38.8535 40.1332 39.6107 40.6572 40.3639 41.1776C40.3776 41.1572 40.3914 41.1368 40.4054 41.1203C39.8924 40.288 39.383 39.4554 38.8657 38.6155C39.003 38.337 39.0979 38.1041 39.2281 37.8966C39.6426 37.2373 40.0692 36.593 40.4877 35.9375C40.5664 35.8113 40.6179 35.6672 40.728 35.4373C39.5505 35.7924 38.4833 36.1136 37.3793 36.4448C37.0507 36.0133 36.7266 35.5932 36.4022 35.1693L36.3982 35.1656Z"/>
</mask>
<path d="M38.2616 40.3207C37.9302 41.1202 38.164 42.0433 37.6091 42.6716C37.1662 42.6544 37.0658 42.3467 36.9712 42.0739C36.65 41.1285 36.3509 40.1778 36.0444 39.2276C36.0172 39.1469 35.9902 39.0701 35.9544 38.9702C34.9973 38.6774 34.0368 38.3887 33.0834 38.0957C32.7708 38.0003 32.4579 37.901 32.1548 37.7777C31.9746 37.7059 31.8138 37.5821 31.678 37.4999C31.6949 37.15 31.8885 37.1308 32.0709 37.1123C32.6592 37.0543 33.247 36.9886 33.8362 36.9462C34.5633 36.8919 35.2954 36.8608 36.0604 36.816C36.0189 35.7875 35.467 34.8674 35.7283 33.7663C36.6971 34.2583 37.0533 35.2253 37.6978 35.9362C38.8956 35.5446 40.0935 35.1531 41.2918 34.7693C41.3396 34.7548 41.4026 34.806 41.4601 34.83C41.6659 35.1472 41.4942 35.4121 41.3398 35.6524C40.8003 36.4797 40.2487 37.292 39.6973 38.1082C39.5941 38.2632 39.4831 38.4148 39.3588 38.5945C39.6005 39.1409 39.9538 39.6102 40.2921 40.0803C40.5857 40.4904 40.9151 40.8709 41.2195 41.2725C41.4304 41.5502 41.4269 41.5543 41.4097 41.963C41.1689 42.2005 40.9006 42.0947 40.6757 41.9629C40.1758 41.6746 39.6926 41.3541 39.217 41.0331C38.8973 40.8166 38.5943 40.5678 38.2616 40.3207ZM36.3982 35.1656C36.3673 35.8534 36.6024 36.4785 36.596 37.2001C35.3896 37.3178 34.2221 37.2686 33.0825 37.5039C33.2503 37.6195 33.4184 37.6763 33.5899 37.7289C34.2761 37.9357 34.9592 38.1544 35.6515 38.3373C36.1117 38.4593 36.389 38.7174 36.5332 39.199C36.7472 39.9116 37.0088 40.6057 37.2557 41.3047C37.2913 41.4006 37.3782 41.4778 37.4641 41.6021C37.6899 40.9186 37.6791 40.2216 38.0376 39.5656C38.8535 40.1332 39.6107 40.6572 40.3639 41.1776C40.3776 41.1572 40.3914 41.1368 40.4054 41.1203C39.8924 40.288 39.383 39.4554 38.8657 38.6155C39.003 38.337 39.0979 38.1041 39.2281 37.8966C39.6426 37.2373 40.0692 36.593 40.4877 35.9375C40.5664 35.8113 40.6179 35.6672 40.728 35.4373C39.5505 35.7924 38.4833 36.1136 37.3793 36.4448C37.0507 36.0133 36.7266 35.5932 36.4022 35.1693L36.3982 35.1656Z" fill="#3DB8D3"/>
<path d="M38.2616 40.3207L38.8577 39.5178L37.8286 38.7538L37.3378 39.9378L38.2616 40.3207ZM37.6091 42.6716L37.5703 43.6708L38.0445 43.6892L38.3586 43.3335L37.6091 42.6716ZM36.9712 42.0739L36.0243 42.3956L36.0264 42.4016L36.9712 42.0739ZM36.0444 39.2276L36.9961 38.9206L36.992 38.9083L36.0444 39.2276ZM35.9544 38.9702L36.8957 38.6326L36.7264 38.1607L36.247 38.014L35.9544 38.9702ZM33.0834 38.0957L33.3772 37.1398L33.3752 37.1392L33.0834 38.0957ZM32.1548 37.7777L32.5319 36.8514L32.5248 36.8486L32.1548 37.7777ZM31.678 37.4999L30.6791 37.4514L30.6503 38.0469L31.1604 38.3555L31.678 37.4999ZM32.0709 37.1123L31.9729 36.1171L31.9699 36.1174L32.0709 37.1123ZM33.8362 36.9462L33.9079 37.9437L33.9107 37.9435L33.8362 36.9462ZM36.0604 36.816L36.1189 37.8143L37.0992 37.7569L37.0596 36.7757L36.0604 36.816ZM35.7283 33.7663L36.1812 32.8747L35.0487 32.2995L34.7554 33.5354L35.7283 33.7663ZM37.6978 35.9362L36.9569 36.6078L37.3923 37.0881L38.0085 36.8867L37.6978 35.9362ZM41.2918 34.7693L41.0006 33.8127L40.9937 33.8148L40.9868 33.817L41.2918 34.7693ZM41.4601 34.83L42.299 34.2858L42.1309 34.0265L41.8458 33.9074L41.4601 34.83ZM41.3398 35.6524L42.1774 36.1986L42.181 36.1931L41.3398 35.6524ZM39.6973 38.1082L38.8687 37.5485L38.8651 37.5538L39.6973 38.1082ZM39.3588 38.5945L38.5363 38.0258L38.2176 38.4866L38.4443 38.9991L39.3588 38.5945ZM40.2921 40.0803L41.1052 39.4981L41.1038 39.4962L40.2921 40.0803ZM41.2195 41.2725L40.4225 41.8765L40.4232 41.8775L41.2195 41.2725ZM41.4097 41.963L42.112 42.6749L42.3922 42.3984L42.4088 42.0052L41.4097 41.963ZM40.6757 41.9629L41.1815 41.1002L41.1752 41.0965L40.6757 41.9629ZM39.217 41.0331L38.6564 41.8611L38.6576 41.862L39.217 41.0331ZM36.3982 35.1656L37.0796 34.4338L35.4962 32.9594L35.3992 35.1208L36.3982 35.1656ZM36.596 37.2001L36.693 38.1954L37.5879 38.1081L37.5959 37.2091L36.596 37.2001ZM33.0825 37.5039L32.8803 36.5245L30.586 36.9982L32.5151 38.3273L33.0825 37.5039ZM33.5899 37.7289L33.2965 38.6849L33.3014 38.6864L33.5899 37.7289ZM35.6515 38.3373L35.9077 37.3707L35.9069 37.3705L35.6515 38.3373ZM36.5332 39.199L35.5753 39.486L35.5755 39.4866L36.5332 39.199ZM37.2557 41.3047L36.3128 41.6377L36.3154 41.6451L36.3181 41.6524L37.2557 41.3047ZM37.4641 41.6021L36.6414 42.1707L37.7834 43.8231L38.4136 41.9159L37.4641 41.6021ZM38.0376 39.5656L38.6087 38.7447L37.6943 38.1085L37.1601 39.086L38.0376 39.5656ZM40.3639 41.1776L39.7955 42.0003L40.6269 42.5747L41.1925 41.7373L40.3639 41.1776ZM40.4054 41.1203L41.1676 41.7676L41.6379 41.2139L41.2567 40.5955L40.4054 41.1203ZM38.8657 38.6155L37.9687 38.1735L37.7244 38.6693L38.0143 39.1399L38.8657 38.6155ZM39.2281 37.8966L38.3815 37.3643L38.3809 37.3653L39.2281 37.8966ZM40.4877 35.9375L41.3306 36.4755L41.3359 36.4671L40.4877 35.9375ZM40.728 35.4373L41.6299 35.8694L42.6089 33.8257L40.4393 34.4799L40.728 35.4373ZM37.3793 36.4448L36.5837 37.0506L37.0033 37.6016L37.6666 37.4026L37.3793 36.4448ZM36.4022 35.1693L37.1963 34.5616L37.1452 34.4948L37.0836 34.4374L36.4022 35.1693ZM37.3378 39.9378C37.1057 40.4976 37.0669 41.1232 37.0272 41.4335C36.9776 41.8217 36.9217 41.9392 36.8595 42.0096L38.3586 43.3335C38.8513 42.7756 38.956 42.1174 39.0111 41.6872C39.076 41.179 39.086 40.9433 39.1853 40.7037L37.3378 39.9378ZM37.6479 41.6723C37.653 41.6725 37.7028 41.6758 37.7726 41.7097C37.8449 41.7448 37.8995 41.7937 37.9345 41.8366C37.9647 41.8737 37.9722 41.8964 37.9641 41.8778C37.9538 41.8545 37.9435 41.8256 37.916 41.7462L36.0264 42.4016C36.0586 42.4944 36.1589 42.8239 36.3846 43.1006C36.668 43.4482 37.078 43.6517 37.5703 43.6708L37.6479 41.6723ZM37.918 41.7522C37.6001 40.8165 37.3056 39.88 36.9961 38.9206L35.0927 39.5346C35.3962 40.4756 35.6998 41.4404 36.0244 42.3956L37.918 41.7522ZM36.992 38.9083C36.962 38.8193 36.9327 38.7359 36.8957 38.6326L35.0131 39.3079C35.0477 39.4042 35.0723 39.4745 35.0967 39.5469L36.992 38.9083ZM36.247 38.014C35.279 37.7178 34.3343 37.434 33.3772 37.1398L32.7896 39.0515C33.7392 39.3434 34.7156 39.637 35.6618 39.9265L36.247 38.014ZM33.3752 37.1392C33.0655 37.0447 32.7898 36.9565 32.5319 36.8515L31.7778 38.7039C32.1259 38.8456 32.476 38.9559 32.7917 39.0522L33.3752 37.1392ZM32.5248 36.8486C32.5182 36.846 32.4928 36.8344 32.4328 36.7966C32.4029 36.7778 32.3742 36.7588 32.3333 36.7319C32.297 36.7081 32.2473 36.6755 32.1956 36.6442L31.1604 38.3555C31.2404 38.4039 31.2121 38.3914 31.3668 38.4888C31.4662 38.5514 31.6112 38.6376 31.7849 38.7067L32.5248 36.8486ZM32.6768 37.5483C32.6767 37.5496 32.6759 37.5656 32.6702 37.5925C32.6643 37.6197 32.653 37.6605 32.6307 37.7092C32.5815 37.8173 32.4974 37.9237 32.3822 38.0036C32.2777 38.0761 32.1855 38.1001 32.1535 38.1073C32.1291 38.1128 32.1146 38.113 32.1719 38.1072L31.9699 36.1174C31.9397 36.1205 31.5666 36.1354 31.2426 36.3601C30.8255 36.6492 30.6966 37.092 30.6791 37.4514L32.6768 37.5483ZM32.169 38.1075C32.7748 38.0478 33.3363 37.9847 33.9079 37.9437L33.7645 35.9488C33.1577 35.9924 32.5436 36.0609 31.9729 36.1171L32.169 38.1075ZM33.9107 37.9435C34.6284 37.8898 35.3313 37.8604 36.1189 37.8143L36.002 35.8177C35.2595 35.8612 34.4981 35.894 33.7617 35.949L33.9107 37.9435ZM37.0596 36.7757C37.0341 36.1424 36.8453 35.4978 36.7569 35.101C36.6562 34.6489 36.6238 34.3237 36.7013 33.9972L34.7554 33.5354C34.5715 34.31 34.6844 34.9954 34.8047 35.5357C34.9374 36.1314 35.0453 36.4612 35.0613 36.8563L37.0596 36.7757ZM35.2755 34.6579C35.5586 34.8017 35.7787 35.024 36.0313 35.3647C36.236 35.6408 36.5967 36.2105 36.9569 36.6078L38.4387 35.2645C38.1543 34.9509 38.0147 34.6817 37.638 34.1736C37.3092 33.7301 36.8668 33.2229 36.1812 32.8747L35.2755 34.6579ZM38.0085 36.8867C39.2068 36.495 40.4018 36.1044 41.5968 35.7217L40.9868 33.817C39.7852 34.2018 38.5845 34.5943 37.3871 34.9857L38.0085 36.8867ZM41.583 35.726C41.3757 35.7891 41.2005 35.7657 41.1048 35.7436C41.0128 35.7223 40.9499 35.6917 40.9367 35.6854C40.9252 35.6798 40.9105 35.6717 40.9413 35.6884C40.9575 35.6971 41.0103 35.7258 41.0745 35.7527L41.8458 33.9074C41.8812 33.9222 41.9045 33.9355 41.8912 33.9283C41.8887 33.927 41.8869 33.926 41.8819 33.9233C41.8778 33.9211 41.8718 33.9178 41.8652 33.9143C41.8524 33.9075 41.8321 33.8968 41.8079 33.8851C41.7659 33.8647 41.6747 33.8226 41.5555 33.795C41.4328 33.7666 41.2318 33.7423 41.0006 33.8127L41.583 35.726ZM40.6212 35.3743C40.6012 35.3434 40.5718 35.2834 40.5599 35.1996C40.5481 35.1173 40.5587 35.0501 40.5693 35.0106C40.5785 34.9763 40.587 34.9659 40.5743 34.9891C40.5602 35.015 40.5411 35.0455 40.4985 35.1117L42.181 36.1931C42.239 36.1029 42.4165 35.8433 42.5008 35.5295C42.6051 35.1413 42.568 34.7002 42.299 34.2858L40.6212 35.3743ZM40.5021 35.1062C39.9682 35.925 39.4222 36.7291 38.8687 37.5485L40.526 38.668C41.0752 37.855 41.6324 37.0344 42.1774 36.1986L40.5021 35.1062ZM38.8651 37.5538C38.7648 37.7043 38.6842 37.8119 38.5363 38.0258L40.1813 39.1633C40.2821 39.0176 40.4233 38.8222 40.5295 38.6627L38.8651 37.5538ZM38.4443 38.9991C38.7375 39.6619 39.1645 40.2255 39.4804 40.6644L41.1038 39.4962C40.743 38.9949 40.4635 38.6198 40.2733 38.19L38.4443 38.9991ZM39.4791 40.6625C39.7644 41.061 40.1898 41.5695 40.4225 41.8765L42.0164 40.6685C41.6404 40.1723 41.4071 39.9198 41.1052 39.4981L39.4791 40.6625ZM40.4232 41.8775C40.4362 41.8945 40.4472 41.9091 40.4571 41.9222C40.467 41.9354 40.4748 41.9459 40.4812 41.9547C40.4947 41.9732 40.4979 41.9784 40.4962 41.9758C40.4939 41.9722 40.4834 41.9553 40.4707 41.9282C40.4643 41.9144 40.4577 41.8988 40.4513 41.8814C40.4449 41.8639 40.4393 41.8461 40.4344 41.8282C40.4247 41.7918 40.4203 41.7622 40.4183 41.7437C40.4165 41.7269 40.4169 41.7202 40.417 41.7305C40.417 41.7411 40.4168 41.7598 40.4157 41.7938C40.4151 41.8102 40.4144 41.8287 40.4135 41.8501C40.4127 41.8717 40.4117 41.8945 40.4106 41.9208L42.4088 42.0052C42.4126 41.9159 42.4177 41.8073 42.4169 41.7131C42.416 41.6111 42.4088 41.4686 42.3659 41.3091C42.2812 40.9941 42.085 40.7587 42.0157 40.6676L40.4232 41.8775ZM40.7073 41.2512C40.7424 41.2166 40.8067 41.168 40.9009 41.1357C40.9946 41.1036 41.0802 41.1005 41.1419 41.107C41.171 41.1101 41.1932 41.1151 41.2072 41.1189C41.2211 41.1227 41.2289 41.1259 41.2298 41.1263C41.2308 41.1267 41.2272 41.1253 41.2184 41.1207C41.2096 41.1162 41.1976 41.1097 41.1815 41.1002L40.1699 42.8255C40.309 42.907 40.5852 43.0593 40.9316 43.0959C41.3451 43.1396 41.7715 43.0108 42.112 42.6749L40.7073 41.2512ZM41.1752 41.0965C40.7085 40.8275 40.2507 40.5243 39.7764 40.2042L38.6576 41.862C39.1346 42.1839 39.6431 42.5218 40.1762 42.8292L41.1752 41.0965ZM39.7776 40.205C39.4772 40.0016 39.2475 39.8073 38.8577 39.5178L37.6655 41.1236C37.9412 41.3283 38.3173 41.6316 38.6564 41.8611L39.7776 40.205ZM35.3992 35.1208C35.3785 35.582 35.4482 36.0067 35.5009 36.3308C35.5578 36.6805 35.5983 36.9309 35.596 37.1912L37.5959 37.2091C37.6 36.7477 37.5262 36.3248 37.4749 36.0096C37.4195 35.6687 37.387 35.437 37.3972 35.2105L35.3992 35.1208ZM36.4989 36.2049C35.9241 36.2609 35.3784 36.2757 34.7599 36.3094C34.1628 36.3418 33.5255 36.3913 32.8803 36.5245L33.2847 38.4832C33.7791 38.3811 34.2953 38.3376 34.8684 38.3064C35.4201 38.2764 36.0615 38.257 36.693 38.1954L36.4989 36.2049ZM32.5151 38.3273C32.8173 38.5355 33.1115 38.6281 33.2965 38.6849L33.8834 36.7729C33.7252 36.7244 33.6832 36.7034 33.6498 36.6804L32.5151 38.3273ZM33.3014 38.6864C33.9656 38.8865 34.6816 39.1154 35.396 39.3041L35.9069 37.3705C35.2368 37.1934 34.5866 36.9848 33.8785 36.7715L33.3014 38.6864ZM35.3952 39.3039C35.4503 39.3185 35.4818 39.3324 35.4977 39.3408C35.5056 39.3449 35.5102 39.348 35.5124 39.3496C35.5146 39.3511 35.5155 39.352 35.516 39.3525C35.5165 39.3529 35.5176 39.3541 35.5197 39.3567C35.5217 39.3594 35.5255 39.3646 35.5305 39.3735C35.5407 39.3914 35.5574 39.4261 35.5753 39.486L37.4912 38.9119C37.3819 38.5471 37.2008 38.1993 36.9057 37.9141C36.6105 37.6289 36.2611 37.4644 35.9077 37.3707L35.3952 39.3039ZM35.5755 39.4866C35.7986 40.2297 36.0751 40.965 36.3128 41.6377L38.1986 40.9716C37.9425 40.2465 37.6958 39.5935 37.491 38.9114L35.5755 39.4866ZM36.3181 41.6524C36.3942 41.8576 36.5109 42.005 36.5556 42.0618C36.6232 42.1475 36.6222 42.1428 36.6414 42.1707L38.2867 41.0336C38.2481 40.9777 38.2119 40.9308 38.1839 40.8955C38.1703 40.8783 38.1572 40.8621 38.1479 40.8506C38.1376 40.8378 38.1315 40.8302 38.1264 40.8238C38.1154 40.8098 38.122 40.8172 38.1337 40.8355C38.1467 40.8558 38.1712 40.8974 38.1933 40.9569L36.3181 41.6524ZM38.4136 41.9159C38.5507 41.5009 38.6229 41.0552 38.6806 40.7752C38.7456 40.4591 38.809 40.2393 38.9151 40.0452L37.1601 39.086C36.9077 39.5478 36.7973 40.0046 36.7216 40.3719C36.6386 40.7753 36.6033 41.0199 36.5146 41.2884L38.4136 41.9159ZM37.4665 40.3865C38.2836 40.955 39.0418 41.4797 39.7955 42.0003L40.9322 40.3548C40.1795 39.8348 39.4234 39.3115 38.6087 38.7447L37.4665 40.3865ZM41.1925 41.7373C41.1962 41.7318 41.198 41.7292 41.1994 41.7271C41.2007 41.7253 41.2004 41.7258 41.199 41.7277C41.1976 41.7296 41.1944 41.7341 41.1896 41.7405C41.1848 41.7467 41.1774 41.7561 41.1676 41.7676L39.6432 40.4729C39.5866 40.5396 39.5409 40.6094 39.5352 40.6178L41.1925 41.7373ZM41.2567 40.5955C40.7407 39.7585 40.2396 38.9394 39.7172 38.0912L38.0143 39.1399C38.5264 39.9715 39.044 40.8174 39.5542 41.645L41.2567 40.5955ZM39.7628 39.0575C39.9425 38.6929 39.9807 38.5787 40.0753 38.4279L38.3809 37.3653C38.2152 37.6296 38.0635 37.9812 37.9687 38.1735L39.7628 39.0575ZM40.0747 38.4289C40.4913 37.7662 40.8956 37.1571 41.3306 36.4755L39.6448 35.3994C39.2429 36.029 38.7939 36.7085 38.3815 37.3643L40.0747 38.4289ZM41.3359 36.4671C41.4124 36.3445 41.4675 36.2262 41.507 36.1389C41.5516 36.0404 41.5809 35.9716 41.6299 35.8694L39.8262 35.0053C39.765 35.1329 39.7135 35.2512 39.6852 35.3137C39.6517 35.3875 39.6417 35.4043 39.6394 35.4079L41.3359 36.4671ZM40.4393 34.4799C39.2621 34.8349 38.1954 35.156 37.092 35.487L37.6666 37.4026C38.7713 37.0713 39.8389 36.7499 41.0167 36.3948L40.4393 34.4799ZM38.1749 35.839C37.8461 35.4071 37.5167 34.9803 37.1963 34.5616L35.608 35.777C35.9364 36.2062 36.2554 36.6194 36.5837 37.0506L38.1749 35.839ZM37.0836 34.4374L37.0796 34.4338L35.7167 35.8975L35.7207 35.9012L37.0836 34.4374Z" fill="#3DB8D3" mask="url(#path-3-inside-1_41_740)"/>
</g>
<defs>
<clipPath id="clip0_41_740">
<rect width="16" height="19" fill="white" transform="translate(33 25) rotate(-132.029)"/>
</clipPath>
<clipPath id="clip1_41_740">
<rect width="16" height="19" fill="white" transform="translate(1 36) rotate(-93.3509)"/>
</clipPath>
<clipPath id="clip2_41_740">
<rect width="9" height="10" fill="white" transform="translate(32 43) rotate(-93.3509)"/>
</clipPath>
</defs>
</svg>
