<svg width="24" height="24" viewBox="0 0 24 24" fill="none" xmlns="http://www.w3.org/2000/svg">
<g clip-path="url(#clip0_40_174)">
<path d="M5.49402 22C5.44971 22.0001 5.40657 21.9862 5.37113 21.9606C5.3357 21.9349 5.3099 21.8988 5.29764 21.8577C5.28538 21.8166 5.28732 21.7728 5.30318 21.7329C5.31904 21.693 5.34795 21.6591 5.38553 21.6365L9.09719 19.3939L4.90179 21.7293C4.85549 21.7563 4.79998 21.7644 4.74747 21.7519C4.69496 21.7394 4.64975 21.7073 4.62178 21.6626C4.59382 21.618 4.58539 21.5644 4.59836 21.5138C4.61133 21.4631 4.64462 21.4195 4.69092 21.3925L11.0322 17.5476L4.42906 21.2242C4.38267 21.2485 4.32831 21.2545 4.2774 21.241C4.2265 21.2274 4.18303 21.1954 4.15613 21.1515C4.12923 21.1077 4.12101 21.0555 4.1332 21.006C4.14538 20.9564 4.17702 20.9133 4.22145 20.8858L5.72284 20.0061L4.26795 20.8162C4.22162 20.8413 4.16693 20.8481 4.11554 20.8349C4.06414 20.8218 4.0201 20.7898 3.99282 20.7457C3.96553 20.7017 3.95715 20.6491 3.96945 20.5992C3.98176 20.5493 4.01379 20.5061 4.05871 20.4786L11.2732 16.1831L4.28019 20.0781C4.23383 20.1028 4.17932 20.1092 4.12819 20.0958C4.07706 20.0825 4.03333 20.0504 4.00624 20.0065C3.97916 19.9626 3.97086 19.9102 3.98308 19.8605C3.99531 19.8108 4.02712 19.7676 4.07176 19.7401L10.1038 16.1796L4.40296 19.3534C4.35661 19.3803 4.30106 19.3884 4.24855 19.3758C4.19604 19.3632 4.15086 19.331 4.12295 19.2863C4.09504 19.2416 4.08669 19.188 4.09973 19.1374C4.11277 19.0867 4.14614 19.0432 4.1925 19.0162L13.8889 13.1624L4.57304 18.3502C4.52664 18.377 4.47106 18.385 4.41855 18.3724C4.36604 18.3597 4.32089 18.3274 4.29304 18.2827C4.26518 18.2379 4.2569 18.1843 4.27002 18.1337C4.28314 18.083 4.31658 18.0395 4.36299 18.0126L12.7803 12.9566L4.72681 17.4417C4.68048 17.4653 4.62652 17.4708 4.57612 17.457C4.52572 17.4432 4.48275 17.4113 4.45611 17.3678C4.42947 17.3243 4.4212 17.2725 4.43302 17.2233C4.44485 17.1741 4.47585 17.1311 4.51961 17.1034L4.77372 16.9554C4.72643 16.9699 4.6753 16.9672 4.62991 16.9479C4.58452 16.9286 4.54798 16.894 4.52712 16.8506C4.50627 16.8072 4.50253 16.7579 4.51662 16.7121C4.5307 16.6662 4.56164 16.6268 4.60363 16.6014L8.23658 14.458L4.91974 16.3071C4.89676 16.3204 4.87129 16.3292 4.84478 16.333C4.81827 16.3368 4.79125 16.3355 4.76525 16.3293C4.73925 16.323 4.71478 16.3119 4.69324 16.2965C4.67171 16.2811 4.65352 16.2618 4.63973 16.2396C4.62594 16.2174 4.61681 16.1929 4.61286 16.1673C4.60891 16.1417 4.61022 16.1157 4.61671 16.0906C4.62321 16.0655 4.63476 16.0419 4.65071 16.0211C4.66667 16.0004 4.6867 15.9828 4.70968 15.9695L10.497 12.4955L5.05148 15.5257C5.00527 15.5507 4.95081 15.5574 4.8996 15.5443C4.8484 15.5312 4.80448 15.4994 4.77714 15.4557C4.74979 15.4119 4.74117 15.3596 4.75309 15.3098C4.76501 15.2601 4.79655 15.2167 4.84102 15.1889L10.2376 11.9314L5.18363 14.7452C5.13739 14.7722 5.08188 14.7805 5.02934 14.7681C4.97679 14.7557 4.93149 14.7237 4.90342 14.6791C4.87535 14.6345 4.8668 14.5809 4.87965 14.5302C4.8925 14.4795 4.9257 14.4359 4.97194 14.4088L10.7919 10.84L5.32965 13.8812C5.28361 13.9053 5.22972 13.9113 5.17917 13.8981C5.12862 13.8849 5.08527 13.8535 5.05811 13.8103C5.03095 13.7671 5.02206 13.7154 5.03328 13.6661C5.0445 13.6168 5.07496 13.5735 5.11837 13.5452L9.74368 10.7098L4.90179 13.4055C4.85563 13.4296 4.80161 13.4357 4.75097 13.4223C4.70033 13.409 4.65697 13.3774 4.6299 13.334C4.60284 13.2906 4.59417 13.2388 4.60568 13.1894C4.6172 13.14 4.64802 13.0968 4.69173 13.0688L6.83634 11.7791L4.54531 13.055C4.49912 13.0822 4.44362 13.0905 4.39104 13.0783C4.33845 13.066 4.29307 13.034 4.26489 12.9895C4.23671 12.9449 4.22804 12.8914 4.24077 12.8407C4.25351 12.7899 4.28661 12.7462 4.3328 12.719L8.86022 9.91149L4.06442 12.5829C4.01812 12.6098 3.96261 12.618 3.9101 12.6055C3.85759 12.593 3.81238 12.5608 3.78442 12.5162C3.75645 12.4715 3.74803 12.418 3.76099 12.3673C3.77396 12.3167 3.80725 12.2731 3.85355 12.2461L6.92689 10.3773L3.66715 12.1926C3.62103 12.2171 3.56688 12.2234 3.51604 12.2102C3.4652 12.1971 3.42161 12.1655 3.39437 12.122C3.36713 12.0786 3.35837 12.0266 3.36991 11.9771C3.38144 11.9276 3.41239 11.8842 3.45628 11.8562L7.17936 9.5814L3.24092 11.7744C3.19483 11.7992 3.14054 11.8059 3.08948 11.7929C3.03842 11.7799 2.99456 11.7484 2.96714 11.7048C2.93972 11.6613 2.93087 11.6092 2.94245 11.5595C2.95403 11.5098 2.98514 11.4664 3.02924 11.4384L7.74101 8.53094L2.76208 11.3034C2.71575 11.3286 2.66106 11.3353 2.60966 11.3222C2.55826 11.309 2.51423 11.277 2.48694 11.233C2.45965 11.189 2.45127 11.1364 2.46358 11.0865C2.47589 11.0366 2.50792 10.9933 2.55284 10.9659L3.69856 10.2817L2.437 10.9844C2.39065 11.0113 2.33509 11.0194 2.28254 11.0069C2.22999 10.9944 2.18475 10.9622 2.15679 10.9175C2.12883 10.8728 2.12042 10.8192 2.13343 10.7685C2.14643 10.7178 2.17978 10.6742 2.22613 10.6472L5.7673 8.49789L2.02709 10.5807C2.00416 10.5941 1.97873 10.603 1.95224 10.6069C1.92575 10.6108 1.89873 10.6096 1.87271 10.6034C1.82016 10.591 1.77489 10.5589 1.74688 10.5142C1.71886 10.4696 1.71038 10.416 1.72331 10.3653C1.73624 10.3146 1.76951 10.271 1.81581 10.2439L6.187 7.57333L1.57802 10.1401C1.53161 10.1669 1.47606 10.1748 1.42359 10.1621C1.37111 10.1494 1.32602 10.1172 1.29821 10.0724C1.27041 10.0276 1.26219 9.97405 1.27534 9.92344C1.2885 9.87282 1.32196 9.82932 1.36837 9.80251L3.31108 8.64071L1.23091 9.79975C1.18581 9.82467 1.13254 9.83204 1.082 9.82035C1.03145 9.80866 0.987439 9.77879 0.958956 9.73685C0.930472 9.69491 0.919666 9.64406 0.928746 9.5947C0.937826 9.54533 0.966105 9.50117 1.00781 9.47124L3.37715 7.78461L0.700677 9.27492C0.656471 9.29903 0.604528 9.30637 0.55501 9.29549C0.505493 9.28461 0.461964 9.25631 0.43294 9.21611C0.403916 9.17591 0.391486 9.12671 0.39808 9.07814C0.404675 9.02957 0.42982 8.98512 0.468596 8.95349L2.26325 7.52101L0.328695 8.59861C0.284262 8.62416 0.231425 8.63246 0.180882 8.62184C0.13034 8.61123 0.085869 8.58248 0.0564739 8.54142C0.0270787 8.50037 0.0149559 8.45007 0.0225602 8.40072C0.0301644 8.35136 0.0569273 8.30664 0.0974301 8.27561L0.720255 7.78618L0.305039 8.01712C0.262518 8.04054 0.212686 8.04841 0.164643 8.03931C0.116601 8.03021 0.0735556 8.00474 0.0433707 7.96756C0.0131857 7.93038 -0.00212427 7.88396 0.00023759 7.83679C0.00259945 7.78962 0.0224754 7.74484 0.0562348 7.71064L0.473083 7.29282C0.42498 7.27813 0.384361 7.24653 0.359286 7.2043C0.332243 7.15912 0.324915 7.10542 0.338913 7.05503C0.352911 7.00464 0.387088 6.96167 0.433927 6.93559L1.35328 6.42413C1.39585 6.40013 1.446 6.39182 1.49443 6.40074C1.54287 6.40967 1.58631 6.43521 1.61672 6.47266C1.64713 6.5101 1.66244 6.55691 1.65983 6.6044C1.65721 6.6519 1.63684 6.69688 1.60249 6.731L1.35287 6.98004L2.71109 6.22427C2.75552 6.19924 2.8081 6.19133 2.85832 6.20212C2.90853 6.21292 2.95266 6.24162 2.98186 6.28247C3.01106 6.32333 3.02317 6.37332 3.01577 6.42242C3.00837 6.47153 2.982 6.51613 2.94195 6.54727L2.32035 7.03512L4.16109 6.00985C4.20536 5.98521 4.25761 5.9775 4.30748 5.98825C4.35736 5.99901 4.40124 6.02743 4.43043 6.0679C4.45961 6.10837 4.47198 6.15794 4.46508 6.20679C4.45818 6.25564 4.43252 6.30021 4.39317 6.33167L2.59852 7.76375L6.31916 5.69235C6.36426 5.66743 6.41753 5.66006 6.46807 5.67175C6.51862 5.68344 6.56263 5.71331 6.59111 5.75525C6.6196 5.79719 6.63041 5.84804 6.62133 5.8974C6.61225 5.94677 6.58397 5.99093 6.54226 6.02086L4.17292 7.70749L14.378 2.02441C14.4242 1.99984 14.4785 1.99353 14.5295 2.00679C14.5804 2.02006 14.6241 2.05187 14.6512 2.09554C14.6784 2.1392 14.6869 2.19132 14.6751 2.24094C14.6632 2.29055 14.6318 2.3338 14.5876 2.36158L12.6465 3.52219L14.5839 2.44341C14.6302 2.41644 14.6857 2.40831 14.7382 2.42081C14.7908 2.43332 14.836 2.46544 14.8639 2.51009C14.8919 2.55475 14.9003 2.6083 14.8874 2.65895C14.8744 2.7096 14.8411 2.75321 14.7948 2.78018L10.4195 5.45393L14.8499 2.98634C14.896 2.96188 14.9501 2.95556 15.001 2.96871C15.0518 2.98187 15.0954 3.01348 15.1226 3.05692C15.1499 3.10037 15.1586 3.1523 15.1471 3.20183C15.1356 3.25137 15.1046 3.29469 15.0607 3.32272L11.5216 5.47085L15.0934 3.48206C15.1396 3.45827 15.1935 3.45252 15.2439 3.46601C15.2944 3.47951 15.3375 3.5112 15.3644 3.55454C15.3913 3.59788 15.3999 3.64954 15.3884 3.69881C15.3769 3.74809 15.3462 3.7912 15.3026 3.81923L14.1536 4.50498L15.2863 3.87549C15.3323 3.85175 15.3859 3.8459 15.4362 3.85914C15.4865 3.87238 15.5297 3.9037 15.5568 3.94667C15.5839 3.98964 15.5929 4.04099 15.5819 4.09017C15.571 4.13935 15.541 4.18262 15.498 4.21109L10.7874 7.11735L15.5706 4.45383C15.6169 4.42686 15.6724 4.41873 15.7249 4.43124C15.7774 4.44374 15.8226 4.47586 15.8506 4.52052C15.8785 4.56518 15.887 4.61872 15.874 4.66937C15.861 4.72003 15.8277 4.76364 15.7814 4.79061L12.062 7.06306L15.8231 4.96883C15.8692 4.94437 15.9233 4.93805 15.9742 4.9512C16.025 4.96436 16.0686 4.99597 16.0958 5.03942C16.1231 5.08286 16.1318 5.13479 16.1203 5.18433C16.1088 5.23386 16.0778 5.27718 16.0339 5.30521L12.9594 7.1744L16.0592 5.44882C16.1053 5.42353 16.1597 5.41653 16.211 5.4293C16.2624 5.44207 16.3065 5.47361 16.3341 5.51724C16.3618 5.56086 16.3707 5.61315 16.359 5.66302C16.3474 5.71289 16.3161 5.75643 16.2717 5.78441L11.7443 8.59271L17.0561 5.63451C17.1023 5.60995 17.1566 5.60364 17.2076 5.6169C17.2585 5.63017 17.3022 5.66198 17.3293 5.70564C17.3565 5.74931 17.365 5.80143 17.3532 5.85105C17.3413 5.90066 17.3099 5.9439 17.2657 5.97168L15.1162 7.26371L17.8355 5.749C17.8817 5.72355 17.9363 5.7165 17.9878 5.72936C18.0393 5.74223 18.0836 5.77398 18.1111 5.81786C18.1387 5.86174 18.1474 5.91427 18.1354 5.96424C18.1233 6.01422 18.0916 6.05769 18.0468 6.08538L13.419 8.9224L18.8511 5.89772C18.8973 5.87226 18.952 5.86522 19.0034 5.87808C19.0549 5.89094 19.0992 5.9227 19.1267 5.96658C19.1543 6.01046 19.163 6.06299 19.151 6.11296C19.139 6.16294 19.1072 6.20641 19.0624 6.2341L13.2436 9.80251L19.963 6.0606C20.0093 6.03368 20.0649 6.02562 20.1174 6.0382C20.1699 6.05078 20.2151 6.08297 20.243 6.12768C20.2709 6.17239 20.2793 6.22596 20.2662 6.27662C20.2532 6.32727 20.2198 6.37085 20.1734 6.39777L14.7813 9.65222L20.9672 6.20735C21.0136 6.18048 21.0692 6.17249 21.1217 6.18515C21.1742 6.1978 21.2193 6.23006 21.2472 6.27482C21.275 6.31958 21.2833 6.37319 21.2702 6.42384C21.2571 6.47449 21.2236 6.51804 21.1772 6.54491L15.3927 10.0177L21.9693 6.35528C22.0158 6.32862 22.0714 6.32087 22.1239 6.33375C22.1763 6.34662 22.2213 6.37906 22.2489 6.42393C22.2766 6.4688 22.2846 6.52242 22.2712 6.573C22.2579 6.62358 22.2243 6.66697 22.1777 6.69363L18.5375 8.84136L22.7386 6.50203C22.7849 6.47846 22.8389 6.473 22.8893 6.48677C22.9397 6.50054 22.9826 6.53249 23.0093 6.57599C23.0359 6.61949 23.0442 6.67122 23.0324 6.72044C23.0205 6.76966 22.9895 6.81261 22.9458 6.84038L22.8764 6.87972L23.1497 6.72825C23.196 6.70249 23.251 6.6953 23.3027 6.70823C23.3544 6.72115 23.3989 6.75315 23.4264 6.79734C23.4539 6.84153 23.4624 6.89438 23.4499 6.94452C23.4374 6.99465 23.4051 7.03807 23.3598 7.06542L14.9408 12.1226L23.5878 7.30698C23.6341 7.28006 23.6897 7.27201 23.7422 7.28459C23.7947 7.29717 23.8399 7.32935 23.8678 7.37406C23.8957 7.41877 23.904 7.47235 23.891 7.523C23.878 7.57365 23.8446 7.61723 23.7982 7.64415L14.1026 13.4976L23.6918 8.15718C23.7383 8.13052 23.7939 8.12278 23.8463 8.13565C23.8988 8.14853 23.9437 8.18097 23.9714 8.22584C23.999 8.27071 24.007 8.32433 23.9937 8.3749C23.9803 8.42548 23.9467 8.46887 23.9002 8.49553L17.8677 12.0569L23.0751 9.15689C23.1214 9.13171 23.1761 9.12499 23.2275 9.13814C23.2789 9.1513 23.3229 9.1833 23.3502 9.22733C23.3775 9.27135 23.3859 9.32391 23.3736 9.37381C23.3613 9.42371 23.3292 9.467 23.2843 9.49445L16.0735 13.7876L21.3604 10.8439C21.4068 10.8184 21.4618 10.8115 21.5135 10.8247C21.5652 10.8379 21.6095 10.8701 21.6367 10.9145C21.664 10.9589 21.6721 11.0118 21.6594 11.0619C21.6466 11.112 21.6139 11.1552 21.5684 11.1823L20.0592 12.0671L20.1959 11.9915C20.242 11.9678 20.2957 11.962 20.3461 11.9754C20.3965 11.9887 20.4396 12.0202 20.4666 12.0634C20.4936 12.1065 20.5024 12.158 20.4912 12.2073C20.48 12.2565 20.4496 12.2997 20.4063 12.3279L14.0655 16.1725L18.6745 13.6062C18.7209 13.5793 18.7764 13.5712 18.8289 13.5838C18.8814 13.5964 18.9266 13.6285 18.9545 13.6733C18.9824 13.718 18.9908 13.7715 18.9777 13.8222C18.9647 13.8729 18.9313 13.9164 18.885 13.9434L15.1758 16.1859L18.7724 14.1829C18.8183 14.1573 18.8728 14.1499 18.9243 14.1623C18.9758 14.1748 19.0202 14.2061 19.0481 14.2496C19.076 14.2931 19.0853 14.3455 19.0738 14.3955C19.0624 14.4455 19.0312 14.4892 18.9869 14.5174L17.8065 15.2704L18.8576 14.685C18.9036 14.6575 18.959 14.6487 19.0117 14.6606C19.0644 14.6726 19.11 14.7042 19.1385 14.7485C19.167 14.7929 19.176 14.8463 19.1637 14.8971C19.1513 14.9479 19.1186 14.9919 19.0726 15.0194L18.2046 15.5741L18.9388 15.1649C18.9842 15.1397 19.038 15.1323 19.0889 15.1442C19.1399 15.1562 19.1841 15.1866 19.2124 15.2292C19.2407 15.2718 19.2509 15.3233 19.2409 15.3729C19.2309 15.4225 19.2014 15.4666 19.1587 15.4958L16.9712 16.9909L19.0514 15.8322C19.0964 15.8065 19.15 15.7985 19.2009 15.8098C19.2519 15.8211 19.2965 15.8509 19.3253 15.893C19.3542 15.9351 19.3652 15.9863 19.356 16.0359C19.3469 16.0856 19.3183 16.13 19.2761 16.1599L16.8525 17.9138L19.1844 16.6155C19.2296 16.5911 19.2828 16.5842 19.3331 16.5962C19.3835 16.6082 19.4271 16.6383 19.4553 16.6803C19.4835 16.7223 19.494 16.7731 19.4847 16.8223C19.4755 16.8715 19.4471 16.9155 19.4054 16.9452L18.0798 17.8635L19.2826 17.1947C19.3278 17.1697 19.381 17.1624 19.4316 17.1741C19.4821 17.1857 19.5261 17.2156 19.5546 17.2575C19.5831 17.2995 19.5939 17.3503 19.5848 17.3997C19.5757 17.4491 19.5475 17.4932 19.5058 17.5232L18.2866 18.3887L19.3822 17.7789C19.4266 17.7542 19.4791 17.7466 19.5291 17.7576C19.5792 17.7685 19.6231 17.7973 19.6521 17.8381C19.6811 17.8789 19.6931 17.9287 19.6857 17.9777C19.6783 18.0267 19.6521 18.0712 19.6122 18.1023L18.1267 19.2546L19.5037 18.4882C19.548 18.4632 19.6005 18.4551 19.6506 18.4657C19.7008 18.4763 19.745 18.5047 19.7743 18.5454C19.8037 18.586 19.8161 18.6359 19.809 18.6849C19.802 18.734 19.7759 18.7787 19.7362 18.8101L18.5795 19.7378L19.6183 19.1594C19.6617 19.137 19.712 19.1304 19.76 19.141C19.808 19.1515 19.8505 19.1784 19.8795 19.2168C19.9085 19.2551 19.9222 19.3023 19.9179 19.3496C19.9137 19.3969 19.8919 19.4412 19.8565 19.4742L18.898 20.3004L19.7338 19.835C19.7772 19.811 19.8283 19.8032 19.8772 19.8132C19.9262 19.8232 19.9696 19.8502 19.9993 19.889C20.029 19.9279 20.0428 19.976 20.0381 20.024C20.0335 20.0721 20.0106 20.1168 19.974 20.1497L19.3956 20.6612L19.7268 20.477C19.75 20.4628 19.776 20.4532 19.8031 20.4489C19.8303 20.4446 19.858 20.4457 19.8848 20.452C19.9115 20.4583 19.9366 20.4697 19.9586 20.4857C19.9806 20.5016 19.999 20.5216 20.0128 20.5446C20.0266 20.5676 20.0354 20.593 20.0387 20.6193C20.042 20.6457 20.0398 20.6724 20.0321 20.6979C20.0244 20.7233 20.0115 20.7471 19.9941 20.7676C19.9767 20.7881 19.9551 20.8051 19.9308 20.8174L18.0064 21.8887C17.963 21.9123 17.9121 21.9198 17.8633 21.9097C17.8146 21.8996 17.7713 21.8726 17.7418 21.8339C17.7123 21.7951 17.6985 21.7473 17.703 21.6994C17.7076 21.6515 17.7302 21.6068 17.7666 21.5739L18.3441 21.0625L17.3979 21.5893C17.3545 21.6117 17.3042 21.6183 17.2562 21.6077C17.2082 21.5972 17.1657 21.5703 17.1367 21.5319C17.1077 21.4936 17.094 21.4464 17.0982 21.3991C17.1025 21.3518 17.1243 21.3075 17.1597 21.2745L18.119 20.4463L16.7143 21.2305C16.67 21.255 16.6179 21.2626 16.5681 21.2519C16.5183 21.2412 16.4745 21.2128 16.4454 21.1725C16.4162 21.1321 16.4037 21.0827 16.4105 21.0339C16.4172 20.9851 16.4426 20.9406 16.4818 20.909L17.6377 19.9813L16.0368 20.8736C15.9923 20.8979 15.9401 20.9051 15.8903 20.894C15.8406 20.8829 15.797 20.8542 15.7681 20.8135C15.7393 20.7729 15.7273 20.7233 15.7345 20.6746C15.7417 20.6258 15.7676 20.5814 15.8071 20.5502L17.2934 19.3971L15.3214 20.4951C15.2766 20.5173 15.2249 20.5228 15.1762 20.5104C15.1276 20.498 15.0853 20.4688 15.0577 20.4282C15.0301 20.3876 15.019 20.3386 15.0265 20.2906C15.0341 20.2426 15.0598 20.199 15.0987 20.1682L16.3174 19.3026L14.7316 20.1835C14.6863 20.2082 14.6329 20.2153 14.5824 20.2033C14.5319 20.1912 14.488 20.1611 14.4598 20.1189C14.4316 20.0767 14.4212 20.0257 14.4307 19.9764C14.4402 19.927 14.4689 19.8831 14.5109 19.8534L15.8369 18.9348L14.1487 19.8751C14.1038 19.8999 14.0507 19.9073 14.0003 19.8958C13.9499 19.8843 13.9059 19.8547 13.8773 19.813C13.8487 19.7714 13.8376 19.7208 13.8463 19.6715C13.8549 19.6222 13.8827 19.578 13.924 19.5478L16.3476 17.7891L13.355 19.4553C13.3096 19.4806 13.2558 19.488 13.2049 19.476C13.1539 19.464 13.1097 19.4336 13.0814 19.391C13.0531 19.3484 13.0429 19.297 13.0529 19.2473C13.0629 19.1977 13.0924 19.1537 13.1352 19.1244L15.3197 17.6329L12.6845 19.1008C12.6617 19.1144 12.6364 19.1236 12.6099 19.1278C12.5835 19.1319 12.5565 19.131 12.5304 19.1251C12.5043 19.1192 12.4797 19.1085 12.458 19.0934C12.4362 19.0783 12.4177 19.0592 12.4036 19.0373C12.3895 19.0153 12.38 18.9909 12.3757 18.9654C12.3714 18.9399 12.3723 18.9138 12.3784 18.8887C12.3845 18.8635 12.3957 18.8398 12.4113 18.8188C12.427 18.7978 12.4467 18.78 12.4695 18.7664L13.3379 18.2117L12.2003 18.8451C12.1544 18.8698 12.1004 18.8765 12.0496 18.8638C11.9987 18.8511 11.9549 18.8199 11.9272 18.7768C11.8996 18.7336 11.8903 18.6819 11.9013 18.6323C11.9123 18.5827 11.9427 18.5392 11.9862 18.5107L13.1645 17.7584L5.59518 21.9736C5.56446 21.9909 5.52956 22 5.49402 22Z" fill="#FCBD16"/>
<path d="M23.7288 8.14593C21.6601 6.92442 18.8178 7.27802 16.4685 6.69261C12.5115 -2.31802 11.5762 -2.15496 7.61998 6.72797C-2.2672 7.77268 -1.85418 8.59618 4.96993 14.8966C3.18331 24.0118 3.11746 25.0396 11.9213 19.965C20.7019 25.0832 20.9503 23.91 19.0661 14.7788C20.3141 12.8548 25.1923 10.6345 23.7288 8.14593ZM22.6751 10.7233C21.2845 12.1063 19.8503 13.4787 18.4787 14.8632C18.3092 16.4741 21.2784 23.5855 17.9503 22.6657C16.2584 22.1428 12.5306 18.8118 11.2148 20.0545C2.56826 25.2883 4.42236 22.1113 5.5488 14.8609C4.28374 12.7899 -3.36072 8.15693 3.08738 7.61749C4.71342 7.17194 6.88501 7.49451 8.233 6.57474C9.37123 4.57452 10.0257 2.20144 11.4611 0.409454C13.7404 -0.331937 14.6287 5.78031 16.0661 6.9421C18.1234 7.60806 26.0964 6.97039 22.6751 10.7233Z" fill="#262626"/>
<path d="M15.3617 9.15314L9.92961 16.3221C9.49598 15.9278 8.24689 14.1824 8 15.3729L9.56921 17C11.4596 16.5547 13.5885 11.8893 15.2707 10.2747C15.6447 9.85278 16.6547 8.5598 15.3617 9.15314Z" fill="#262626"/>
</g>
<defs>
<clipPath id="clip0_40_174">
<rect width="24" height="24" fill="white"/>
</clipPath>
</defs>
</svg>
