<svg width="32" height="32" viewBox="0 0 32 32" fill="none" xmlns="http://www.w3.org/2000/svg">
<g clip-path="url(#clip0_41_801)">
<path d="M25 0H7C3.13401 0 0 3.13401 0 7V25C0 28.866 3.13401 32 7 32H25C28.866 32 32 28.866 32 25V7C32 3.13401 28.866 0 25 0Z" fill="#3DB8D3"/>
<path fill-rule="evenodd" clip-rule="evenodd" d="M7.30615 14.4573L17.5091 10.2707C22.3677 8.34555 23.3773 8.01115 24.0353 8.00012C24.1801 7.99768 24.5037 8.03185 24.7133 8.19389C24.8903 8.33069 24.939 8.51556 24.9623 8.64522C24.9857 8.77489 25.0146 9.07046 24.9916 9.30135C24.7283 11.9367 23.589 18.3321 23.0095 21.2838C22.7642 22.5328 22.2816 22.9516 21.8138 22.9926C20.7978 23.0816 20.0263 22.3529 19.0423 21.7384L15.1378 19.24C13.4104 18.1556 14.5302 17.5596 15.5147 16.5856C15.7723 16.3306 20.2487 12.4519 20.3353 12.1C20.3458 12.056 20.3563 11.892 20.254 11.8053C20.1517 11.7187 20.0007 11.7486 19.8918 11.7719C19.7372 11.8052 17.2774 13.3541 12.5121 16.4186C11.8139 16.8753 11.1814 17.0979 10.6148 17.0863C9.99011 17.0734 8.7885 16.7497 7.89522 16.4731C6.79956 16.1338 5.92875 15.9544 6.00461 15.3783C6.04407 15.0782 6.47797 14.7712 7.30615 14.4573Z" fill="white"/>
</g>
<defs>
<clipPath id="clip0_41_801">
<rect width="32" height="32" fill="white"/>
</clipPath>
</defs>
</svg>
