<svg width="32" height="32" viewBox="0 0 32 32" fill="none" xmlns="http://www.w3.org/2000/svg">
<g clip-path="url(#clip0_41_794)">
<path d="M0 7C0 3.13401 3.13401 0 7 0H25C28.866 0 32 3.13401 32 7V25C32 28.866 28.866 32 25 32H7C3.13401 32 0 28.866 0 25V7Z" fill="#2787F5"/>
<path fill-rule="evenodd" clip-rule="evenodd" d="M9.64436 11H7.67517C7.11253 11 7 11.2725 7 11.573C7 12.1098 7.6676 14.7717 10.1085 18.2923C11.7357 20.6967 14.0283 22 16.1146 22C17.3664 22 17.5212 21.7105 17.5212 21.2119V19.3948C17.5212 18.8157 17.6398 18.7002 18.0361 18.7002C18.3283 18.7002 18.8289 18.8505 19.9972 20.0097C21.3324 21.3836 21.5526 22 22.3035 22H24.2728C24.8354 22 25.1167 21.7105 24.9544 21.1392C24.7768 20.5699 24.1394 19.7438 23.2935 18.7646C22.8345 18.2065 22.146 17.6054 21.9374 17.3049C21.6454 16.9184 21.7288 16.7466 21.9374 16.4033C21.9374 16.4033 24.3366 12.9255 24.5869 11.7449C24.712 11.3155 24.5869 11 23.9914 11H22.0222C21.5215 11 21.2907 11.2725 21.1655 11.573C21.1655 11.573 20.1641 14.0848 18.7455 15.7162C18.2865 16.1885 18.0779 16.3388 17.8274 16.3388C17.7023 16.3388 17.5211 16.1885 17.5211 15.7592V11.7449C17.5211 11.2296 17.3759 11 16.9586 11H13.8641C13.5512 11 13.363 11.2391 13.363 11.4658C13.363 11.9542 14.0723 12.0668 14.1455 13.4407V16.4247C14.1455 17.0789 14.0306 17.1975 13.7803 17.1975C13.1127 17.1975 11.4888 14.6746 10.5257 11.7878C10.3369 11.2267 10.1477 11 9.64436 11Z" fill="white"/>
</g>
<defs>
<clipPath id="clip0_41_794">
<rect width="32" height="32" fill="white"/>
</clipPath>
</defs>
</svg>
