<svg width="32" height="32" viewBox="0 0 32 32" fill="none" xmlns="http://www.w3.org/2000/svg">
<g clip-path="url(#clip0_41_804)">
<path d="M0 7C0 3.13401 3.13401 0 7 0H25C28.866 0 32 3.13401 32 7V25C32 28.866 28.866 32 25 32H7C3.13401 32 0 28.866 0 25V7Z" fill="#E5432D"/>
<path fill-rule="evenodd" clip-rule="evenodd" d="M7 15.5C7 13 7.3317 11.6026 7.3317 11.6026C7.57681 10.0378 9.06212 8.57063 10.6544 8.36687C10.6544 8.36687 12.1377 8 16.5 8C20.8622 8 22.3481 8.36715 22.3481 8.36715C23.9367 8.58921 25.4313 10.0385 25.6581 11.6051C25.6581 11.6051 26 13.1923 26 15.5C26 17.8076 25.6581 19.3948 25.6581 19.3948C25.4187 20.961 23.9341 22.4052 22.3382 22.5968C22.3382 22.5968 19.9898 23 16.5 23C13.0102 23 10.6592 22.5965 10.6592 22.5965C9.06661 22.3945 7.56206 20.9634 7.33113 19.3932C7.33113 19.3932 7 18 7 15.5ZM15 18.8492C14.5436 19.1236 14.1735 18.9161 14.1735 18.3874V12.6125C14.1735 12.083 14.5451 11.8772 15 12.1507L19.7449 15.003C20.2014 15.2775 20.1998 15.7234 19.7449 15.9969L15 18.8492Z" fill="white"/>
</g>
<defs>
<clipPath id="clip0_41_804">
<rect width="32" height="32" fill="white"/>
</clipPath>
</defs>
</svg>
